<svg xmlns="http://www.w3.org/2000/svg" width="66" height="66" viewBox="0 0 66 66">
  <g id="Raggruppa_732" data-name="Raggruppa 732" transform="translate(-97 -2510)">
    <path id="Tracciato_508" data-name="Tracciato 508" d="M128,68.143h24.234v46.176H128Z" transform="translate(-14.5 2450.641)" fill="#4592de"/>
    <path id="Tracciato_509" data-name="Tracciato 509" d="M144.5,0,128,8.784l16.5,8.784H161V8.784Z" transform="translate(-14.5 2510)" fill="#4592de"/>
    <path id="Tracciato_510" data-name="Tracciato 510" d="M324,136.286l7.734,48.432,16.5-8.784V136.286Z" transform="translate(-185.234 2391.282)" fill="#241e7a"/>
    <path id="Tracciato_511" data-name="Tracciato 511" d="M212.445,136.286v17.568L206,164.894l6.445,11.04,16.5,8.784V136.286Z" transform="translate(-82.445 2391.282)" fill="#372dbd"/>
    <path id="Tracciato_512" data-name="Tracciato 512" d="M289,76.927l-16.5-8.784L256,76.927l16.5,8.784Z" transform="translate(-126 2450.641)" fill="#372dbd"/>
    <path id="Tracciato_513" data-name="Tracciato 513" d="M68,272.572l7.734,30.864,16.5-8.784v-22.08Z" transform="translate(37.766 2272.564)" fill="#56389c"/>
    <path id="Tracciato_514" data-name="Tracciato 514" d="M0,272.572v22.08l16.5,8.784V272.572Z" transform="translate(97 2272.564)" fill="#7b52db"/>
    <path id="Tracciato_515" data-name="Tracciato 515" d="M16.5,204.428,0,213.212,16.5,222,33,213.212Z" transform="translate(97 2331.924)" fill="#7b52db"/>
  </g>
</svg>
