<?xml version="1.0" encoding="utf-8"?>
<!-- Generator: Adobe Illustrator 24.2.3, SVG Export Plug-In . SVG Version: 6.00 Build 0)  -->
<svg version="1.1" id="Livello_1" xmlns="http://www.w3.org/2000/svg" xmlns:xlink="http://www.w3.org/1999/xlink" x="0px" y="0px"
	 viewBox="0 0 655.7 624.4" style="enable-background:new 0 0 655.7 624.4;" xml:space="preserve">
<style type="text/css">
	.st0{fill:#4A91A5;}
	.st1{fill-rule:evenodd;clip-rule:evenodd;fill:#4A91A5;}
</style>
<g id="costruiamo">
</g>
<g id="Area_system">
	<g id="Livello_3">
	</g>
</g>
<g id="s">
	<g>
		<g>
			<g>
				<g>
					<path class="st0" d="M31.7,516.1L31.7,516.1c0-7.1,5.3-12.9,13-12.9c3.7,0,6.3,1,8.3,2.5c0.6,0.4,1.1,1.2,1.1,2.2
						c0,1.5-1.2,2.7-2.7,2.7c-0.7,0-1.2-0.3-1.6-0.5c-1.5-1.2-3.1-1.7-5.1-1.7c-4.1,0-7.2,3.5-7.2,7.7v0.1c0,4.2,2.9,7.8,7.2,7.8
						c2.3,0,3.9-0.7,5.4-2c0.4-0.4,1-0.6,1.6-0.6c1.4,0,2.5,1.2,2.5,2.5c0,0.9-0.4,1.5-0.9,2c-2.3,2-4.9,3.1-8.8,3.1
						C37.1,528.9,31.7,523.2,31.7,516.1z"/>
					<path class="st0" d="M57.9,516.1L57.9,516.1c0-7.1,5.5-12.9,13.2-12.9c7.6,0,13.2,5.7,13.2,12.7v0.1c0,7.1-5.5,12.8-13.2,12.8
						C63.3,528.9,57.9,523.2,57.9,516.1z M78.5,516.1L78.5,516.1c0-4.3-3.1-7.9-7.5-7.9c-4.4,0-7.4,3.5-7.4,7.7v0.1
						c0,4.2,3.1,7.8,7.5,7.8C75.5,523.9,78.5,520.4,78.5,516.1z"/>
					<path class="st0" d="M89.1,525.9c-0.6-0.4-1-1.2-1-2c0-1.4,1.2-2.5,2.5-2.5c0.7,0,1.2,0.2,1.5,0.5c1.9,1.4,3.9,2.3,6.3,2.3
						c2.3,0,3.6-0.9,3.6-2.3v-0.1c0-1.4-0.9-2.1-5-3.1c-5-1.3-8.2-2.7-8.2-7.6v-0.1c0-4.5,3.6-7.5,8.7-7.5c3,0,5.6,0.8,7.9,2.2
						c0.6,0.4,1.2,1.1,1.2,2.2c0,1.4-1.2,2.5-2.5,2.5c-0.5,0-0.9-0.1-1.4-0.4c-1.8-1.1-3.5-1.7-5.2-1.7c-2.1,0-3.2,0.9-3.2,2.2v0.1
						c0,1.6,1.1,2.2,5.4,3.3c5,1.3,7.9,3.1,7.9,7.4v0.1c0,4.9-3.8,7.7-9.1,7.7C95.2,528.9,91.9,527.8,89.1,525.9z"/>
					<path class="st0" d="M118.3,508.7h-5.2c-1.4,0-2.5-1.2-2.5-2.5s1.2-2.5,2.5-2.5H129c1.4,0,2.5,1.2,2.5,2.5s-1.2,2.5-2.5,2.5
						h-5.2v17.2c0,1.5-1.2,2.8-2.8,2.8s-2.8-1.2-2.8-2.8L118.3,508.7L118.3,508.7z"/>
					<path class="st0" d="M136.3,506.4c0-1.5,1.2-2.8,2.8-2.8h8.6c3.1,0,5.6,0.9,7.2,2.5c1.4,1.4,2.1,3.3,2.1,5.7v0.1
						c0,3.9-2,6.3-4.9,7.6l3.8,4.6c0.5,0.7,0.9,1.2,0.9,2.1c0,1.5-1.3,2.5-2.6,2.5c-1.2,0-2-0.6-2.7-1.4l-5.3-6.8h-4.4v5.5
						c0,1.5-1.2,2.8-2.8,2.8s-2.8-1.2-2.8-2.8v-19.6H136.3z M147.3,515.7c2.7,0,4.1-1.4,4.1-3.5v-0.1c0-2.3-1.6-3.6-4.3-3.6h-5.5
						v7.1H147.3z"/>
					<path class="st0" d="M162.3,517.9v-11.6c0-1.5,1.2-2.8,2.8-2.8s2.8,1.2,2.8,2.8v11.5c0,4.1,2,6.1,5.4,6.1s5.4-2,5.4-6v-11.7
						c0-1.5,1.2-2.8,2.8-2.8s2.8,1.2,2.8,2.8v11.5c0,7.5-4.2,11.2-10.9,11.2C166.3,528.9,162.3,525.1,162.3,517.9z"/>
					<path class="st0" d="M190.4,506.2c0-1.5,1.2-2.8,2.8-2.8s2.8,1.2,2.8,2.8v19.8c0,1.5-1.2,2.8-2.8,2.8s-2.8-1.2-2.8-2.8V506.2z"
						/>
					<path class="st0" d="M201.5,525l8.7-19.5c0.6-1.4,1.7-2.2,3.2-2.2h0.3c1.5,0,2.5,0.8,3.1,2.2l8.7,19.5c0.1,0.4,0.3,0.7,0.3,1.1
						c0,1.5-1.2,2.6-2.6,2.6c-1.3,0-2.1-0.7-2.6-1.9l-1.7-3.9h-10.9l-1.7,4.1c-0.4,1.1-1.4,1.7-2.5,1.7c-1.4,0-2.5-1.2-2.5-2.5
						C201.1,525.7,201.3,525.4,201.5,525z M216.8,518.1l-3.4-8.2l-3.4,8.2H216.8z"/>
					<path class="st0" d="M230.7,506.2c0-1.5,1.2-2.8,2.8-2.8h0.6c1.2,0,2,0.6,2.5,1.4l6.6,10.8l6.6-10.8c0.6-0.9,1.4-1.4,2.5-1.4
						h0.6c1.5,0,2.8,1.2,2.8,2.8v19.7c0,1.5-1.2,2.8-2.8,2.8c-1.5,0-2.7-1.2-2.7-2.8v-12.4l-4.8,7.3c-0.6,0.9-1.3,1.4-2.3,1.4
						c-0.9,0-1.7-0.5-2.3-1.4l-4.7-7.3V526c0,1.5-1.2,2.7-2.7,2.7c-1.5,0-2.7-1.2-2.7-2.7L230.7,506.2L230.7,506.2z"/>
					<path class="st0" d="M261.1,516.1L261.1,516.1c0-7.1,5.5-12.9,13.2-12.9c7.6,0,13.2,5.7,13.2,12.7v0.1
						c0,7.1-5.5,12.8-13.2,12.8C266.7,528.9,261.1,523.2,261.1,516.1z M281.8,516.1L281.8,516.1c0-4.3-3.1-7.9-7.5-7.9
						s-7.4,3.5-7.4,7.7v0.1c0,4.2,3.1,7.8,7.5,7.8C278.8,523.9,281.8,520.4,281.8,516.1z"/>
					<path class="st0" d="M304.5,506.2c0-1.5,1.2-2.8,2.8-2.8c1.5,0,2.8,1.2,2.8,2.8v17.3h10.1c1.4,0,2.5,1.1,2.5,2.5
						c0,1.4-1.1,2.5-2.5,2.5h-12.8c-1.5,0-2.8-1.2-2.8-2.8L304.5,506.2L304.5,506.2z"/>
					<path class="st0" d="M325.8,525l8.7-19.5c0.6-1.4,1.7-2.2,3.2-2.2h0.3c1.5,0,2.5,0.8,3.1,2.2l8.7,19.5c0.1,0.4,0.3,0.7,0.3,1.1
						c0,1.5-1.2,2.6-2.6,2.6c-1.3,0-2.1-0.7-2.6-1.9l-1.7-3.9h-10.9l-1.7,4.1c-0.4,1.1-1.4,1.7-2.5,1.7c-1.4,0-2.5-1.2-2.5-2.5
						C325.5,525.7,325.7,525.4,325.8,525z M341.2,518.1l-3.4-8.2l-3.4,8.2H341.2z"/>
					<path class="st0" d="M372.2,508.7H367c-1.4,0-2.5-1.2-2.5-2.5s1.2-2.5,2.5-2.5h15.9c1.4,0,2.5,1.2,2.5,2.5s-1.2,2.5-2.5,2.5
						h-5.2v17.2c0,1.5-1.2,2.8-2.8,2.8c-1.5,0-2.8-1.2-2.8-2.8L372.2,508.7L372.2,508.7z"/>
					<path class="st0" d="M389.8,517.9v-11.6c0-1.5,1.2-2.8,2.8-2.8c1.5,0,2.8,1.2,2.8,2.8v11.5c0,4.1,2,6.1,5.4,6.1s5.4-2,5.4-6
						v-11.7c0-1.5,1.2-2.8,2.8-2.8s2.8,1.2,2.8,2.8v11.5c0,7.5-4.2,11.2-10.9,11.2C393.9,528.9,389.8,525.1,389.8,517.9z"/>
					<path class="st0" d="M415.8,525l8.7-19.5c0.6-1.4,1.7-2.2,3.2-2.2h0.3c1.5,0,2.5,0.8,3.1,2.2l8.7,19.5c0.1,0.4,0.3,0.7,0.3,1.1
						c0,1.5-1.2,2.6-2.6,2.6c-1.3,0-2.1-0.7-2.6-1.9l-1.7-3.9h-10.9l-1.7,4.1c-0.4,1.1-1.4,1.7-2.5,1.7c-1.4,0-2.5-1.2-2.5-2.5
						C415.5,525.7,415.7,525.4,415.8,525z M431.2,518.1l-3.4-8.2l-3.4,8.2H431.2z"/>
					<path class="st0" d="M456.7,506.2c0-1.5,1.2-2.8,2.8-2.8s2.8,1.2,2.8,2.8v19.8c0,1.5-1.2,2.8-2.8,2.8s-2.8-1.2-2.8-2.8V506.2z"
						/>
					<path class="st0" d="M469.2,506.2c0-1.5,1.2-2.8,2.8-2.8h0.6c1.2,0,2,0.6,2.5,1.4l6.6,10.8l6.6-10.8c0.6-0.9,1.4-1.4,2.5-1.4
						h0.6c1.5,0,2.8,1.2,2.8,2.8v19.7c0,1.5-1.2,2.8-2.8,2.8c-1.5,0-2.7-1.2-2.7-2.8v-12.4l-4.8,7.3c-0.6,0.9-1.3,1.4-2.3,1.4
						c-1,0-1.7-0.5-2.3-1.4l-4.7-7.3V526c0,1.5-1.2,2.7-2.7,2.7s-2.7-1.2-2.7-2.7V506.2z"/>
					<path class="st0" d="M500.7,506.4c0-1.5,1.2-2.8,2.8-2.8h7.3c5.9,0,9.5,3.5,9.5,8.6v0.1c0,5.7-4.4,8.7-10,8.7h-4.1v4.9
						c0,1.5-1.2,2.8-2.8,2.8s-2.8-1.2-2.8-2.8L500.7,506.4L500.7,506.4z M510.4,516.2c2.8,0,4.3-1.6,4.3-3.8v-0.1
						c0-2.5-1.7-3.8-4.4-3.8h-4.2v7.6L510.4,516.2L510.4,516.2z"/>
					<path class="st0" d="M525.1,506.4c0-1.5,1.2-2.8,2.8-2.8h8.6c3.1,0,5.6,0.9,7.2,2.5c1.4,1.4,2.1,3.3,2.1,5.7v0.1
						c0,3.9-2,6.3-4.9,7.6l3.8,4.6c0.5,0.7,0.9,1.2,0.9,2.1c0,1.5-1.3,2.5-2.6,2.5c-1.2,0-2-0.6-2.7-1.4l-5.3-6.8h-4.4v5.5
						c0,1.5-1.2,2.8-2.8,2.8c-1.5,0-2.8-1.2-2.8-2.8v-19.6H525.1z M536.1,515.7c2.7,0,4.1-1.4,4.1-3.5v-0.1c0-2.3-1.6-3.6-4.3-3.6
						h-5.5v7.1H536.1z"/>
					<path class="st0" d="M551.5,525.7v-19.4c0-1.5,1.2-2.8,2.8-2.8H568c1.4,0,2.5,1.1,2.5,2.5s-1.1,2.4-2.5,2.4h-11.1v5h9.5
						c1.4,0,2.5,1.1,2.5,2.5c0,1.4-1.1,2.4-2.5,2.4h-9.5v5.2h11.2c1.4,0,2.5,1.1,2.5,2.5c0,1.4-1.1,2.4-2.5,2.4h-13.9
						C552.7,528.5,551.5,527.3,551.5,525.7z"/>
					<path class="st0" d="M575.5,525.9c-0.6-0.4-1-1.2-1-2c0-1.4,1.2-2.5,2.5-2.5c0.7,0,1.2,0.2,1.5,0.5c1.9,1.4,3.9,2.3,6.3,2.3
						c2.3,0,3.6-0.9,3.6-2.3v-0.1c0-1.4-0.9-2.1-5-3.1c-5-1.3-8.2-2.7-8.2-7.6v-0.1c0-4.5,3.6-7.5,8.7-7.5c3,0,5.6,0.8,7.9,2.2
						c0.6,0.4,1.2,1.1,1.2,2.2c0,1.4-1.2,2.5-2.5,2.5c-0.5,0-0.9-0.1-1.4-0.4c-1.8-1.1-3.5-1.7-5.2-1.7c-2.1,0-3.2,0.9-3.2,2.2v0.1
						c0,1.6,1.1,2.2,5.4,3.3c5,1.3,7.9,3.1,7.9,7.4v0.1c0,4.9-3.8,7.7-9.1,7.7C581.5,528.9,578.2,527.8,575.5,525.9z"/>
					<path class="st0" d="M597.8,525l8.7-19.5c0.6-1.4,1.7-2.2,3.2-2.2h0.3c1.5,0,2.5,0.8,3.1,2.2l8.7,19.5c0.1,0.4,0.3,0.7,0.3,1.1
						c0,1.5-1.2,2.6-2.6,2.6c-1.3,0-2.1-0.7-2.6-1.9l-1.7-3.9h-10.9l-1.7,4.1c-0.4,1.1-1.4,1.7-2.5,1.7c-1.4,0-2.5-1.2-2.5-2.5
						C597.5,525.7,597.7,525.4,597.8,525z M613.2,518.1l-3.4-8.2l-3.4,8.2H613.2z"/>
				</g>
			</g>
		</g>
		<g>
			<path class="st1" d="M623,445.3c-0.5-0.7-1.2-1.2-2-1.4c-0.8-0.2-1.7-0.3-2.5,0c-0.9,0.2-1.5,0.7-2,1.3l-14.9,20.2l-14.5-19.5
				c-0.6-0.6-1.2-1.2-1.7-1.7c-0.6-0.5-1.4-0.7-2.3-0.7c-0.3,0-0.7,0.1-1,0.2c-0.4,0.1-0.9,0.4-1.3,0.7c-0.4,0.4-0.8,0.8-1.1,1.4
				c-0.3,0.6-0.4,1.3-0.4,2.2v36.9c0,1.5,0.4,2.5,1.2,3.3c0.8,0.8,1.7,1.2,2.8,1.2c1.2,0,2.3-0.4,3.3-1.2s1.5-1.9,1.5-3.3v-24.2
				l9.7,13.8c1.1,1.5,2.3,2.2,3.6,2.2c1.4,0,2.6-0.7,3.8-2.2l10.8-13.8v24.2c0,1.5,0.4,2.5,1.2,3.3s1.8,1.2,3,1.2c1,0,2-0.4,2.8-1.2
				c0.8-0.8,1.2-1.9,1.2-3.3V448C623.9,446.9,623.6,446,623,445.3"/>
			<path class="st1" d="M550.2,480.8h-19.9V471h16.5c1.5,0,2.5-0.4,3.3-1.3c0.7-0.9,1.1-1.9,1.1-3s-0.4-2-1.1-2.9
				c-0.7-0.9-1.8-1.3-3.3-1.3h-16.5v-9.8h18.8c1.5,0,2.6-0.4,3.3-1.4c0.7-0.9,1.1-1.9,1.1-2.9c0-1-0.4-2-1.1-2.9
				c-0.7-0.9-1.8-1.3-3.3-1.3h-23.5c-1.2,0-2.1,0.4-2.8,1.2c-0.8,0.7-1.2,1.7-1.2,2.9v37.2c0,1.2,0.4,2.1,1.2,2.9
				c0.8,0.8,1.7,1.2,2.8,1.2h24.6c1.6,0,2.8-0.4,3.6-1.3c0.7-0.9,1.1-1.9,1.1-3c0-1-0.4-2-1.2-2.9
				C552.8,481.3,551.7,480.8,550.2,480.8"/>
			<path class="st1" d="M475.6,488.5c0.9,0.7,1.9,1.1,3,1.1s2.1-0.4,3-1.1c0.9-0.7,1.3-1.8,1.3-3.3v-33h10.8c1.5,0,2.5-0.4,3.3-1.3
				c0.7-0.9,1.1-1.8,1.1-2.9c0-1-0.4-2-1.1-2.9c-0.7-0.9-1.8-1.3-3.3-1.3h-30.9c-1.5,0-2.5,0.4-3.2,1.3c-0.7,0.9-1,1.8-1,2.9
				c0,1,0.4,2,1,2.9c0.7,0.9,1.7,1.3,3.2,1.3h11.4v33C474.3,486.7,474.8,487.8,475.6,488.5"/>
			<path class="st1" d="M430.3,465.5c-2-1-4.3-1.9-6.6-2.5c-2.3-0.6-4.5-1.2-6.5-1.9c-2-0.7-3.6-1.5-4.8-2.5c-1.2-1-1.7-2.4-1.3-4.1
				c0.4-1.7,1.2-2.9,2.6-3.6c1.4-0.7,2.9-1.2,4.7-1.2c1.7-0.1,3.6,0.1,5.4,0.7c1.8,0.4,3.3,1.1,4.6,1.9c1,0.7,2,0.9,2.9,0.7
				c0.9-0.2,1.7-0.7,2.3-1.5c0.6-0.7,0.8-1.7,0.7-2.7c-0.1-1-0.7-2-1.8-2.9c-1.5-1.2-3.2-2-5.2-2.7c-2-0.7-4-1-6.2-1.2
				c-2.1-0.1-4.2,0.1-6.3,0.5c-2.1,0.4-4,1.2-5.7,2.1c-1.7,0.9-3.1,2.3-4.2,3.8c-1.2,1.5-1.8,3.3-2.1,5.5c-0.4,3.1,0,5.6,1.2,7.4
				c1.2,1.9,2.6,3.3,4.5,4.5c1.9,1.1,4,2,6.3,2.6c2.3,0.7,4.4,1.3,6.5,1.9c2,0.7,3.9,1.4,5.2,2.3c1.5,0.9,2.3,2.1,2.3,3.7
				c-0.1,1.5-0.7,2.8-1.5,3.6c-0.8,0.9-1.8,1.6-3,2c-1.2,0.4-2.5,0.7-4,0.7c-1.5,0-2.8-0.2-4.3-0.5c-1.5-0.3-2.8-0.7-4.1-1.2
				s-2.4-1.1-3.3-1.7c-1.2-0.9-2.2-1.3-3.1-1.1c-0.9,0.1-1.9,0.7-2.7,1.6c-0.6,0.9-0.9,2-0.8,3.2c0.1,1.2,0.7,2.3,1.7,3.2
				c1.5,1.2,3.4,2.3,5.6,3c2.2,0.8,4.5,1.3,7,1.5c2.5,0.2,4.9,0.1,7.4-0.3c2.5-0.4,4.7-1.2,6.7-2.3s3.6-2.6,4.9-4.5
				c1.3-1.9,2-4.2,2-7c0.1-2.8-0.5-5.2-1.9-6.9C434.1,467.9,432.3,466.5,430.3,465.5"/>
			<path class="st1" d="M378.5,444.7c-0.9-0.6-2-0.8-3.1-0.7c-1.2,0.1-2.2,0.7-3.1,2l-11.6,17.1L349.3,446c-0.8-1.2-1.8-2-3-2
				c-1.2-0.1-2.2,0.1-3.1,0.7c-0.9,0.6-1.5,1.5-1.9,2.5c-0.3,1.1-0.1,2.1,0.7,3.2l14.3,21.4v13.5c0,1.5,0.4,2.5,1.4,3.2
				c0.9,0.7,1.9,1.1,3,1.1s2.1-0.4,3-1c0.9-0.7,1.3-1.7,1.3-3.2v-13.5l14.8-21.4c0.9-1.1,1.1-2.2,0.7-3.2
				C380.1,446.1,379.5,445.3,378.5,444.7"/>
			<path class="st1" d="M313,465.5c-2-1-4.3-1.9-6.6-2.5c-2.3-0.6-4.5-1.2-6.5-1.9c-2-0.7-3.6-1.5-4.8-2.5c-1.2-1-1.6-2.4-1.3-4.1
				c0.4-1.7,1.2-2.9,2.6-3.6c1.4-0.7,2.9-1.2,4.7-1.2c1.7-0.1,3.6,0.1,5.4,0.7c1.8,0.4,3.3,1.1,4.6,1.9c1,0.7,2,0.9,2.9,0.7
				c0.9-0.2,1.7-0.7,2.3-1.5c0.5-0.7,0.8-1.7,0.7-2.7c-0.1-1-0.7-2-1.8-2.9c-1.5-1.2-3.2-2-5.2-2.7c-2-0.7-4-1-6.1-1.2
				c-2.1-0.1-4.2,0.1-6.3,0.5s-4,1.2-5.7,2.1c-1.7,0.9-3.1,2.3-4.2,3.8s-1.8,3.3-2.1,5.5c-0.4,3.1,0.1,5.6,1.2,7.4
				c1.1,1.9,2.6,3.3,4.5,4.5c1.9,1.1,4,2,6.3,2.6c2.3,0.7,4.4,1.3,6.5,1.9c2,0.7,3.8,1.4,5.2,2.3c1.5,0.9,2.2,2.1,2.3,3.7
				c-0.1,1.5-0.7,2.8-1.5,3.6c-0.8,0.9-1.8,1.6-3,2s-2.5,0.7-3.9,0.7c-1.5,0-2.8-0.2-4.3-0.5c-1.5-0.3-2.8-0.7-4.1-1.2
				c-1.3-0.5-2.4-1.1-3.3-1.7c-1.1-0.9-2.2-1.3-3.1-1.1c-0.9,0.1-1.9,0.7-2.7,1.6c-0.7,0.9-0.9,2-0.8,3.2c0.1,1.2,0.7,2.3,1.7,3.2
				c1.5,1.2,3.4,2.3,5.6,3c2.2,0.8,4.5,1.3,7,1.5c2.5,0.2,4.9,0.1,7.4-0.3c2.5-0.4,4.7-1.2,6.7-2.3c2-1.1,3.6-2.6,4.9-4.5
				c1.3-1.9,2-4.2,2-7c0.1-2.8-0.5-5.2-1.9-6.9C316.7,467.9,315.1,466.5,313,465.5"/>
			<path class="st1" d="M244.6,446.3c-0.4-0.9-0.9-1.6-1.7-2c-0.7-0.4-1.5-0.7-2.3-0.7s-1.6,0.2-2.3,0.7c-0.7,0.4-1.3,1.1-1.8,2
				L217.7,483c-0.7,1.4-0.7,2.6-0.2,3.7c0.5,1.1,1.2,2,2.3,2.5c1.2,0.2,2.3,0.1,3.3-0.1c1.1-0.3,1.9-1,2.4-2.1l2.8-5.7h24.2l2.8,5.7
				c0.7,1.2,1.5,2,2.6,2.3s2.2,0.1,3.1-0.4c0.9-0.5,1.7-1.3,2.2-2.4s0.4-2.3-0.3-3.5L244.6,446.3z M232.6,472.8l8.1-16.2l7.4,16.2
				H232.6z"/>
			<path class="st1" d="M196.5,485.1c-0.1-1-0.4-2-1.2-2.9c-0.8-0.9-1.9-1.3-3.4-1.3h-19.9V471h16.5c1.5,0,2.5-0.4,3.3-1.3
				c0.8-0.9,1.1-1.9,1.1-3c0-1.1-0.4-2-1.1-2.9c-0.7-0.9-1.8-1.3-3.3-1.3h-16.5v-9.8h18.8c1.5,0,2.6-0.4,3.3-1.4
				c0.7-0.9,1.1-1.9,1.1-2.9s-0.4-2-1.1-2.9c-0.7-0.9-1.8-1.3-3.3-1.3h-23.5c-1.1,0-2.1,0.4-2.9,1.2c-0.8,0.7-1.2,1.7-1.2,2.9v37.2
				c0,1.2,0.4,2.1,1.2,2.9c0.8,0.8,1.7,1.2,2.9,1.2h24.6c1.6,0,2.8-0.4,3.6-1.3C196.2,487.2,196.6,486.1,196.5,485.1"/>
			<path class="st1" d="M129.4,471.9c2.3-0.9,4.1-2.3,5.5-4c1.4-1.7,2.3-3.6,2.7-5.7c0.4-2,0.5-4.1,0.1-6.3s-1.2-4.1-2.4-5.9
				c-1.2-1.7-2.8-3.1-4.9-4.3c-2-1.1-4.4-1.7-7.2-1.7h-17.4c-1.1,0-2,0.4-2.8,1.2c-0.7,0.7-1.1,1.7-1.1,2.8v37.2
				c0,1.5,0.4,2.5,1.4,3.2c0.9,0.7,1.9,1,3,1s2.1-0.4,3-1.1c0.9-0.7,1.4-1.8,1.4-3.2v-11.9h10.3l9.9,14.1c1,1.2,2.1,1.9,3.3,2
				c1.2,0.1,2.2-0.1,3.1-0.7c0.9-0.6,1.5-1.5,1.7-2.6c0.3-1.2,0-2.3-0.9-3.6L129.4,471.9z M126.8,464.7c-0.9,0.7-2.2,1-3.6,1h-12.6
				v-13.8h12.6c1.5,0,2.8,0.4,3.7,1c1,0.7,1.7,1.5,2.2,2.5c0.5,1,0.7,2.1,0.7,3.3c0,1.2-0.3,2.3-0.8,3.3
				C128.5,463.2,127.8,464,126.8,464.7"/>
			<path class="st1" d="M60.3,446.3c-0.4-0.9-0.9-1.6-1.7-2c-0.7-0.4-1.5-0.7-2.3-0.7s-1.6,0.2-2.3,0.7s-1.3,1.1-1.7,2L33.5,483
				c-0.7,1.4-0.7,2.6-0.2,3.7c0.5,1.1,1.3,2,2.3,2.5c1.2,0.2,2.3,0.1,3.4-0.1c1.1-0.3,1.9-1,2.4-2.1l2.8-5.7h24.2l2.9,5.7
				c0.6,1.2,1.5,2,2.5,2.3s2.2,0.1,3.1-0.4c0.9-0.5,1.7-1.3,2.1-2.4c0.5-1.1,0.4-2.3-0.3-3.5L60.3,446.3z M48.2,472.8l8.1-16.2
				l7.3,16.2H48.2z"/>
		</g>
		<path class="st1" d="M366.2,116.2c-24-24.4-61.7-27.9-89.9-8.2c-16.6,11.6-27.6,29.6-30.2,49.5c-2.4,18,2.5,35.3,13.6,48.7
			c10.2,12.2,27.4,28.5,43.8,44.3c14.8,14.2,30.2,28.8,39.1,39.1c6.6,7.7,9.5,17.9,8.1,28.8c-1.7,13-9.1,25.4-20,33
			c-17.8,12.4-41.7,10.6-56.8-4.2c-16.9-16.5-38-37.8-54.8-54.8c-4.8-4.9-12.7-4.9-17.5-0.1c-4.9,4.9-4.9,12.7-0.1,17.5
			c16.8,17,38.1,38.3,55,55c19.4,19,47.9,24.3,72.7,15.1c5.5-2,10.8-4.8,15.7-8.2c16.6-11.6,27.9-30.3,30.4-50.3
			c2.3-17.9-2.7-35-13.9-48c-5.9-6.8-13.8-14.8-22.6-23.5l63.3-62.6l17.1,17.1c4.8,4.9,12.7,4.9,17.5,0c4.8-4.8,4.8-12.7,0-17.5
			L366.2,116.2z M320.9,232.7c-0.1-0.1-0.1-0.1-0.2-0.2c-16-15.3-32.7-31.1-41.9-42.3c-6.7-7.9-9.5-18.4-8.1-29.5
			c1.7-12.9,9.1-25,19.9-32.5c18.1-12.7,42.5-10.5,58,5.4l36,36L320.9,232.7z"/>
	</g>
</g>
</svg>
