<?xml version="1.0" encoding="utf-8"?>
<!-- Generator: Adobe Illustrator 23.0.0, SVG Export Plug-In . SVG Version: 6.00 Build 0)  -->
<svg version="1.1" id="Livello_1" xmlns="http://www.w3.org/2000/svg" xmlns:xlink="http://www.w3.org/1999/xlink" x="0px" y="0px"
	 viewBox="0 0 160 60" style="enable-background:new 0 0 160 60;" xml:space="preserve">
<style type="text/css">
	.st0{fill:#04955F;}
</style>
<g>
	<g>
		<path class="st0" d="M2.31,42.17V18h7.14c1.32,0,2.45,0.45,3.4,1.35c0.97,0.93,1.46,2.04,1.46,3.35c0,1.89-0.86,3.28-2.57,4.16
			c1.81,0.36,3.31,1.23,4.5,2.63c1.22,1.43,1.83,3.08,1.83,4.96c0,2.15-0.78,3.97-2.33,5.48c-1.54,1.49-3.39,2.24-5.55,2.24H2.31z
			 M3.05,18.72v7.99h6.4c1.12,0,2.08-0.39,2.89-1.17c0.83-0.78,1.24-1.73,1.24-2.85c0-1.11-0.41-2.05-1.24-2.83
			c-0.8-0.76-1.76-1.15-2.89-1.15H3.05z M3.05,27.44v14.01h7.14c1.96,0,3.64-0.68,5.03-2.04c1.42-1.37,2.13-3.02,2.13-4.96
			c0-1.95-0.71-3.61-2.13-4.98c-1.39-1.36-3.07-2.04-5.03-2.04H3.05z"/>
		<path class="st0" d="M10.19,42.7H1.77V17.46h7.68c1.46,0,2.73,0.5,3.77,1.5c1.08,1.03,1.63,2.28,1.63,3.74
			c0,1.66-0.61,2.99-1.81,3.96c1.41,0.49,2.61,1.32,3.6,2.48c1.3,1.52,1.96,3.31,1.96,5.31c0,2.29-0.84,4.26-2.5,5.86
			C14.48,41.9,12.49,42.7,10.19,42.7z M3.59,40.9h6.6c1.83,0,3.36-0.62,4.66-1.88c1.32-1.28,1.96-2.77,1.96-4.57
			c0-1.81-0.64-3.31-1.96-4.59c-1.3-1.27-2.83-1.88-4.66-1.88h-6.6V40.9z M3.59,26.18h5.86c0.99,0,1.81-0.33,2.51-1.01
			c0.73-0.68,1.08-1.49,1.08-2.46c0-0.96-0.35-1.76-1.07-2.44c-0.71-0.67-1.53-1-2.52-1H3.59V26.18z"/>
	</g>
	<g>
		<path class="st0" d="M23.14,18v24.16H22.4V18H23.14z"/>
		<rect x="21.87" y="17.46" class="st0" width="1.82" height="25.24"/>
	</g>
	<g>
		<path class="st0" d="M74.14,41.04V18h0.72v24.16h-0.78L56.39,19.13v23.04h-0.72V18h0.78L74.14,41.04z"/>
		<polygon class="st0" points="75.4,42.7 73.82,42.7 73.65,42.49 56.93,20.72 56.93,42.7 55.13,42.7 55.13,17.46 56.71,17.46 
			56.88,17.67 73.6,39.45 73.6,17.46 75.4,17.46 		"/>
	</g>
	<g>
		<path class="st0" d="M82.04,35.23l-3.07,6.94h-0.8L88.83,18h0.76l10.68,24.16h-0.81l-3.07-6.94H82.04z M89.22,18.96l-6.86,15.52
			h13.71L89.22,18.96z"/>
		<path class="st0" d="M101.09,42.7H99.1l-3.07-6.94H82.39l-3.07,6.94h-1.97l11.13-25.24h1.46L101.09,42.7z M83.18,33.95h12.06
			L89.21,20.3L83.18,33.95z"/>
	</g>
	<g>
		<path class="st0" d="M114.14,18v0.72h-8.81v23.44h-0.74V18.72h-8.83V18H114.14z"/>
		<polygon class="st0" points="105.87,42.7 104.05,42.7 104.05,19.26 95.23,19.26 95.23,17.46 114.68,17.46 114.68,19.26 
			105.87,19.26 		"/>
	</g>
	<g>
		<path class="st0" d="M135.01,18v15.82c0,2.53-0.91,4.61-2.72,6.25c-1.76,1.59-3.92,2.39-6.48,2.39c-2.55,0-4.71-0.8-6.46-2.39
			c-1.81-1.64-2.72-3.73-2.72-6.25V18h0.72v15.82c0,2.32,0.84,4.23,2.52,5.74c1.62,1.44,3.6,2.16,5.94,2.16
			c2.36,0,4.34-0.72,5.96-2.16c1.66-1.5,2.5-3.42,2.5-5.74V18H135.01z"/>
		<path class="st0" d="M125.81,43c-2.68,0-4.97-0.85-6.82-2.53c-1.92-1.74-2.9-3.98-2.9-6.65V17.46h1.8v16.36
			c0,2.18,0.76,3.92,2.34,5.33c1.51,1.34,3.38,2.03,5.58,2.03c2.21,0,4.09-0.68,5.6-2.03c1.56-1.41,2.32-3.15,2.32-5.33V17.46h1.82
			v16.36c0,2.68-0.97,4.91-2.9,6.65C130.79,42.15,128.49,43,125.81,43z"/>
	</g>
	<g>
		<path class="st0" d="M141.13,42.17V18h7.88c2.16,0,4.01,0.75,5.55,2.24c1.55,1.5,2.33,3.34,2.33,5.49c0,2.15-0.78,3.97-2.33,5.48
			c-1.54,1.51-3.39,2.26-5.55,2.26h-0.35l8.73,8.7h-1.04l-8.73-8.7h-5.77v8.7H141.13z M149.01,32.73c1.95,0,3.63-0.68,5.03-2.04
			c1.41-1.36,2.11-3.01,2.11-4.96c0-1.95-0.7-3.61-2.11-4.98c-1.39-1.36-3.07-2.04-5.03-2.04h-7.16v14.01H149.01z"/>
		<path class="st0" d="M158.7,42.7h-2.56l-8.73-8.7h-5.01v8.7h-1.8V17.46h8.42c2.29,0,4.29,0.8,5.93,2.39
			c1.66,1.6,2.5,3.58,2.5,5.88c0,2.29-0.84,4.26-2.49,5.86c-1.42,1.38-3.1,2.18-5.02,2.36L158.7,42.7z M142.39,32.19h6.62
			c1.82,0,3.34-0.62,4.66-1.88c1.31-1.26,1.95-2.76,1.95-4.57c0-1.81-0.64-3.32-1.95-4.59c-1.3-1.27-2.82-1.88-4.66-1.88h-6.62
			V32.19z"/>
	</g>
</g>
<path class="st0" d="M40.55,42.8c-0.27,0-0.46-0.01-0.54-0.01c-0.52,0.03-5.8,0.23-8.46-3.12c-1.64-2.07-1.89-5.01-0.76-8.74
	c2.71-8.9,5.91-13.41,9.49-13.41c3.89,0,7.12,4.39,9.87,13.41c1.09,3.58,0.82,6.44-0.8,8.5C46.91,42.51,42.19,42.8,40.55,42.8z
	 M40.28,18.58c-3.01,0-5.94,4.37-8.46,12.65c-1.03,3.37-0.84,5.98,0.57,7.76c2.39,3.01,7.53,2.72,7.58,2.71l0.03,0l0.03,0
	c0.06,0,5.9,0.31,8.48-2.96c1.39-1.76,1.59-4.29,0.61-7.51C46.56,22.84,43.59,18.58,40.28,18.58z"/>
<rect x="39.83" y="18.18" transform="matrix(1 -7.022506e-03 7.022506e-03 1 -0.2112 0.2842)" class="st0" width="1.08" height="24.08"/>
<rect x="36.98" y="21.63" transform="matrix(0.6962 -0.7178 0.7178 0.6962 -6.973 34.7076)" class="st0" width="1.08" height="7.93"/>
<path class="st0" d="M40.28,34.27c-0.14,0-0.27-0.05-0.38-0.15l-7.29-7.18c-0.21-0.21-0.21-0.55-0.01-0.76
	c0.21-0.21,0.55-0.21,0.76-0.01l7.29,7.18c0.21,0.21,0.21,0.55,0.01,0.76C40.56,34.22,40.42,34.27,40.28,34.27z"/>
<rect x="35.39" y="29.06" transform="matrix(0.658 -0.7531 0.7531 0.658 -14.1269 39.051)" class="st0" width="1.08" height="12.03"/>
<rect x="39.14" y="24.99" transform="matrix(0.7178 -0.6963 0.6963 0.7178 -5.5818 37.2844)" class="st0" width="8.13" height="1.08"/>
<path class="st0" d="M40.56,34.27c-0.14,0-0.27-0.05-0.38-0.15c-0.21-0.21-0.22-0.55-0.01-0.76l7.29-7.45
	c0.21-0.21,0.55-0.22,0.76-0.01c0.21,0.21,0.22,0.55,0.01,0.76l-7.29,7.45C40.84,34.22,40.7,34.27,40.56,34.27z"/>
<rect x="38.85" y="34.37" transform="matrix(0.7432 -0.669 0.669 0.7432 -11.8056 39.0587)" class="st0" width="12.26" height="1.08"/>
</svg>
