<?xml version="1.0" encoding="utf-8"?>
<!-- Generator: Adobe Illustrator 23.0.0, SVG Export Plug-In . SVG Version: 6.00 Build 0)  -->
<svg version="1.1" id="Livello_1" xmlns="http://www.w3.org/2000/svg" xmlns:xlink="http://www.w3.org/1999/xlink" x="0px" y="0px"
	 viewBox="0 0 1920 1080" style="enable-background:new 0 0 1920 1080;" xml:space="preserve">
<style type="text/css">
	.st0{fill:#808080;}
	.st1{fill-rule:evenodd;clip-rule:evenodd;fill:#E31110;}
	.st2{fill:#E31110;}
</style>
<g>
	<polygon class="st0" points="497.8,1050.6 497.8,996.6 540.3,996.6 540.3,1002.8 504.5,1002.8 504.5,1018.6 526.2,1018.6 
		526.2,1024.8 504.5,1024.8 504.5,1044.4 542.5,1044.4 542.5,1050.6 	"/>
	<polygon class="st0" points="549,1050.6 549,996.6 555.7,996.6 555.7,1044.4 590.9,1044.4 590.9,1050.6 	"/>
	<polygon class="st0" points="595.5,1050.6 595.5,996.6 638,996.6 638,1002.8 602.2,1002.8 602.2,1018.6 623.8,1018.6 623.8,1024.8 
		602.2,1024.8 602.2,1044.4 640.2,1044.4 640.2,1050.6 	"/>
	<path class="st0" d="M688,1036v-7.9h-14.7v-6.2h21.4v16.2c-2.6,4.5-6,7.9-10.2,10.3c-4.2,2.4-8.9,3.6-14.2,3.6
		c-8.1,0-14.8-2.7-20-8c-5.3-5.3-7.9-12.1-7.9-20.3c0-8.2,2.6-15,7.9-20.3c5.3-5.3,11.9-8,20-8c5,0,9.5,1.1,13.6,3.3
		c4.1,2.2,7.4,5.3,10,9.3l-5.6,4c-1.7-3.2-4.1-5.8-7.3-7.6c-3.2-1.8-6.8-2.7-10.7-2.7c-6.1,0-11.1,2.1-15.1,6.2c-4,4.2-6,9.4-6,15.8
		c0,6.4,2,11.6,6,15.8c4,4.1,9,6.2,15.1,6.2c3.8,0,7.1-0.8,10.1-2.4C683.3,1041.6,685.8,1039.2,688,1036"/>
	<path class="st0" d="M695.1,1050.6l26.5-54h5.6l26.8,54h-7.3l-7.3-14.5h-29.8l-7.1,14.5H695.1z M712.5,1029.8h23.8l-11.9-23.9
		L712.5,1029.8z"/>
	<polygon class="st0" points="758.6,1050.6 758.6,996.6 762.1,996.6 797.1,1037 797.1,996.6 803.8,996.6 803.8,1050.6 800.4,1050.6 
		765.3,1010.3 765.3,1050.6 	"/>
	<polygon class="st0" points="825.8,1050.6 825.8,1002.8 803.1,1002.8 803.1,996.6 855.2,996.6 855.2,1002.8 832.5,1002.8 
		832.5,1050.6 	"/>
	<polygon class="st0" points="854.6,1050.6 854.6,996.6 897.1,996.6 897.1,1002.8 861.3,1002.8 861.3,1018.6 883,1018.6 883,1024.8 
		861.3,1024.8 861.3,1044.4 899.3,1044.4 899.3,1050.6 	"/>
	<polygon class="st0" points="939.1,1050.6 939.1,996.6 942.6,996.6 977.6,1037 977.6,996.6 984.3,996.6 984.3,1050.6 980.9,1050.6 
		945.8,1010.3 945.8,1050.6 	"/>
	<polygon class="st0" points="996.9,1050.6 996.9,996.6 1039.4,996.6 1039.4,1002.8 1003.6,1002.8 1003.6,1018.6 1025.3,1018.6 
		1025.3,1024.8 1003.6,1024.8 1003.6,1044.4 1041.6,1044.4 1041.6,1050.6 	"/>
	<polygon class="st0" points="1048,1050.6 1048,996.6 1054.8,996.6 1054.8,1044.4 1090,1044.4 1090,1050.6 	"/>
	<path class="st0" d="M1169.3,1036v-7.9h-14.7v-6.2h21.4v16.2c-2.6,4.5-6,7.9-10.2,10.3c-4.2,2.4-8.9,3.6-14.3,3.6
		c-8.1,0-14.8-2.7-20-8c-5.3-5.3-7.9-12.1-7.9-20.3c0-8.2,2.6-15,7.9-20.3c5.3-5.3,11.9-8,20-8c5,0,9.6,1.1,13.7,3.3
		c4.1,2.2,7.4,5.3,10,9.3l-5.6,4c-1.7-3.2-4.1-5.8-7.3-7.6c-3.2-1.8-6.8-2.7-10.7-2.7c-6.1,0-11.1,2.1-15.1,6.2c-4,4.2-6,9.4-6,15.8
		c0,6.4,2,11.6,6,15.8c4,4.1,9,6.2,15.1,6.2c3.8,0,7.1-0.8,10.1-2.4C1164.6,1041.6,1167.1,1039.2,1169.3,1036"/>
	<path class="st0" d="M1191.6,996.6v34.9c0,5.6,1.1,9.3,3.2,11.3c2.1,1.9,6.2,2.9,12.4,2.9c6.1,0,10.3-1,12.4-2.9
		c2.1-1.9,3.1-5.7,3.1-11.3v-34.9h6.7v36.8c0,6.6-1.7,11.4-5.2,14.3c-3.4,2.9-9.1,4.3-17.1,4.3c-7.9,0-13.6-1.4-17.1-4.3
		c-3.5-2.9-5.2-7.7-5.2-14.3v-36.8H1191.6z"/>
	<path class="st0" d="M1235.6,1042.5l3.9-5.8c3.8,3,7.8,5.2,11.9,6.8c4.1,1.5,8.2,2.3,12.3,2.3c5,0,9-1,12.1-3.2
		c3.1-2.1,4.7-4.8,4.7-8.2c0-2.6-1.1-4.8-3.4-6.5c-2.2-1.7-5.3-2.7-9.3-3.1c-1-0.1-2.3-0.2-4.1-0.3c-8.9-0.6-14.9-1.7-18.2-3.1
		c-2.5-1.2-4.4-2.8-5.7-4.7c-1.3-1.9-2-4.1-2-6.5c0-4.3,1.9-7.9,5.8-10.7c3.9-2.8,8.9-4.2,15.1-4.2c4.5,0,9,0.7,13.3,2.2
		c4.4,1.5,8.6,3.7,12.5,6.6l-3.9,5.6c-3.3-2.7-6.8-4.7-10.5-6.1c-3.7-1.3-7.5-2-11.3-2c-4.1,0-7.4,0.8-10.1,2.4c-2.6,1.6-4,3.6-4,6
		c0,0.9,0.2,1.8,0.6,2.6c0.4,0.8,1.1,1.5,2,2.2c2.2,1.7,7,2.7,14.4,3.2c3.4,0.2,6,0.4,7.9,0.6c5.5,0.6,9.8,2.4,13,5.3
		c3.2,2.9,4.8,6.5,4.8,10.7c0,5-2.2,9.2-6.6,12.5c-4.4,3.2-10.2,4.9-17.3,4.9c-5.4,0-10.4-0.8-15-2.3
		C1244.2,1048.1,1239.8,1045.7,1235.6,1042.5"/>
	<polygon class="st0" points="1306.4,1050.6 1306.4,1002.8 1283.7,1002.8 1283.7,996.6 1335.9,996.6 1335.9,1002.8 1313.1,1002.8 
		1313.1,1050.6 	"/>
	<path class="st0" d="M1358.8,1052c-8.1,0-14.8-2.7-20-8c-5.3-5.3-7.9-12.1-7.9-20.3c0-8.2,2.6-15,7.9-20.3c5.3-5.3,11.9-8,20-8
		c8.1,0,14.8,2.7,20.1,8c5.3,5.3,8,12.1,8,20.3c0,8.2-2.7,15-7.9,20.3C1373.7,1049.3,1367,1052,1358.8,1052 M1358.9,1045.7
		c6.1,0,11.1-2.1,15.1-6.2c4-4.1,6-9.4,6-15.8c0-6.4-2-11.6-5.9-15.8c-4-4.1-9-6.2-15.1-6.2c-6.1,0-11.1,2.1-15.1,6.2
		c-4,4.2-6,9.4-6,15.8c0,6.4,2,11.6,6,15.8C1347.8,1043.6,1352.8,1045.7,1358.9,1045.7z"/>
	<path class="st1" d="M942.5,46c-108.2,0-195.8,87.7-195.8,195.8c0,108.2,87.7,195.8,195.8,195.8c108.2,0,195.8-87.7,195.8-195.8
		C1138.3,133.6,1050.6,46,942.5,46z M878,281.1c-21.7,0-39.3-17.6-39.3-39.3c0-21.7,17.6-39.3,39.3-39.3c21.7,0,39.3,17.6,39.3,39.3
		C917.3,263.5,899.7,281.1,878,281.1z M1006.9,281.1c-21.7,0-39.3-17.6-39.3-39.3c0-21.7,17.6-39.3,39.3-39.3
		c21.7,0,39.3,17.6,39.3,39.3C1046.2,263.5,1028.6,281.1,1006.9,281.1z"/>
	<path class="st0" d="M1650.6,784.1v26.3h5.2v-20.6h64v-47.1h4.9c0,42.5,0,16.4,0,52.3h-64c0,12.7,0-10.8,0,15.4h83l13.3-13.3h5.5
		v65h-176.9v-5.2l13-13V672.2l-13-13V654h157.6v52h-92.6v26h5.2v-20.6h92.9v-47.1h4.9c0,43.4,0,30.3,0,52.3h-92.9
		c0,13.1,0-10.4,0,15.3h53.6c0,17.3,0,34.7,0,52H1650.6z M1772.8,872.5h-177.2v-5.2h172.2v-59.8h4.9
		C1772.8,857,1772.8,845.5,1772.8,872.5z"/>
	<path class="st0" d="M1479.4,784.1v-8.6l-55.7-92.9l-7.8-13l-5.2,0l0.9,1.5L1479.4,784.1z M1401.4,843.9l5.2,5.2V741.4l-5.2-8.6
		V843.9z M1422.2,864.7l2.3,2.6v5.2h-78v-5.2h73.1v-5.2L1422.2,864.7z M1552.2,864.7l2.3,2.6v5.2h-70v-5.2h65v-5.2L1552.2,864.7z
		 M1415.5,756.4l-4-6.7v5.8v2.5v2.6v10.4v2.6v1.6v0.4v78.5l2.9,2.9v5.2h-78v-5.2l13-13V672.2l-13-13V654h65l5.7,9.6h10.2l3.6,6
		l43.3,72.2l11.2,18.9h-0.1l4.2,6.8v-4.3v-2.5v-2.6v-10.4v-2.6v-4.7v-68.2l-13-13V654h78v5.2l-13,13v171.7l5.2,5.2V677.7l13-13.3
		h4.9v5.2l-10.4,10.4l-2.6,2.6c0,46.1,0,170.5,0,171.4l2.9,2.9v5.2h-65l-52-85.8L1415.5,756.4z"/>
	<path class="st0" d="M622.5,719.9v-0.1l-2.1,2.5h0l-8.3,9.8h-5.2v-5.2l13.8-15.6h53.9V706h-59.1L602,721.6h-5.2V654h207.9v67.6
		h-7.3L795,719l-1.2-1.3l0,0l-1.2-1.3h-55.9v1.3v1.3v2.6v3.1v2.1v5.2v2.6v10.4v2.6v10.4v2.6v10.4v2.6v10.4v2.6v10.4v2.6v10.7v2.6
		v10.1v2.6v10.4v2.6v10.4v2.6v2.3l2.9,2.9v5.1h-78v-5.2l13-13V725.3v-0.1v-0.6v-0.6v-0.6v-0.6v-0.6v-0.6V719v-0.7v-1.9h-48.9
		l-2.3,2.6h0L622.5,719.9z M807.2,732.1l-3.9-5.2h6.5v-62.4h4.9v24.7v3.9v2.6V706v2.6V719v2.6v10.4H807.2z M726.6,843.9l5.2,5.2
		V711.3h56.7l-4.2-5.2h-57.7V843.9z M749.7,867.3v5.2h-78v-5.2h73.1v-5L749.7,867.3z"/>
	<path class="st0" d="M551.4,716.9L551.4,716.9c1,1.6,1.9,3.2,2.8,4.9c-0.9-1.7-0.5-1,0.2,0.3c18.4,34.5,13.8,77.9-8.3,108.6
		c-13.6,19-33.3,33.1-57.2,38.5c-1.6,0.4-3.2,0.8-4.8,1.1c-6.4,1.4-12.8,2.1-19.2,2.1c-7.5,0-14.8-0.9-22-2.7
		c-7.2-1.8-14-4.3-20.4-7.4c-6.4-3.1-12.2-6.7-17.4-10.8c-5.2-4.1-9.6-8.4-13.3-12.9c7.6,8.3,17.3,15.2,29,20.6
		c11.7,5.4,24.8,8.1,39.2,8.1c15.8,0,29.9-3.2,42.4-9.5c12.5-6.3,23-14.5,31.5-24.5c8.5-10,15-21.1,19.5-33.4
		c4.5-12.3,6.8-24.5,6.8-36.4c0-15.3-2.9-29.3-8.7-42.1c-5.8-12.8-12.5-23.1-20.2-30.7c4.3,4.3,8.3,8.9,11.8,13.7
		C546.2,708.4,548.9,712.7,551.4,716.9 M455,810.1c7.1,0,13.6-1.4,19.5-4.2c5.9-2.8,11-6.5,15.2-11.2c4.2-4.7,7.5-10.2,9.9-16.5
		c2.3-6.3,3.5-13,3.5-20.2c0-10.2-2.9-23.9-9.6-32l-0.1-0.1l-0.1-0.1l-0.1-0.1c-8.8-6.7-15.5-8.3-22.8-8.9l-0.1,0h0
		c-0.8-0.1-1.5-0.1-2.3-0.2h0l-0.2,0c-12.4-0.7-23.5,2.7-32.1,10c-1.9,1.6-3.6,3.3-5.2,5.1c-0.8,0.9-1.5,1.9-2.3,2.8h0
		c-2.6,3.5-4.6,6.9-6,10.4c-0.6,1.3-1.1,2.6-1.5,3.8c-0.5,1.2-0.9,2.5-1.3,3.9c-0.1,0.5-0.3,1.1-0.4,1.6l0,0l0,0.1l0,0.1l0,0.1
		l0,0.1l0,0.1l0,0.1l0,0.1c-3.2,12.4-1.7,23.1,1.4,31.8l0,0c1.2,3.5,4.9,12.1,7.5,14.8C435.7,807.2,444.8,810.1,455,810.1z
		 M407.2,758.1c0,8,1.4,15.5,4.3,22.5c2.9,7,7,13,12.4,17.8c-3.6-4.9-6.5-10.5-8.5-17c-2-6.5-3-12.8-3-18.9c0-7.6,1.3-14.6,3.8-20.8
		c2.5-6.2,6-11.6,10.4-16.1c4.4-4.5,9.5-8,15.2-10.4c5.7-2.4,11.9-3.6,18.5-3.6c11.8,0,22.2,4,31.2,12c-4.3-5.4-9.6-9.6-15.7-12.7
		c-6.2-3.1-13-4.7-20.7-4.7c-7.1,0-13.6,1.4-19.5,4.2c-5.9,2.8-10.9,6.5-15.1,11.2c-4.2,4.7-7.4,10.2-9.8,16.5
		C408.3,744.2,407.2,750.9,407.2,758.1z M455,654c13.9,0,26.9,2.7,39,8.2c12.1,5.5,22.7,12.9,31.7,22.2c9,9.4,16.2,20.4,21.5,33
		c5.3,12.7,7.9,26.2,7.9,40.6c0,14.4-2.7,27.9-7.9,40.6c-5.3,12.7-12.4,23.7-21.5,33c-9,9.4-19.6,16.8-31.7,22.2
		c-12.1,5.5-25.1,8.2-39,8.2c-13.9,0-26.8-2.7-38.9-8.2c-12-5.5-22.6-12.9-31.7-22.2c-9.1-9.4-16.3-20.4-21.5-33
		c-5.2-12.7-7.8-26.2-7.8-40.6c0-14.4,2.6-27.9,7.8-40.6c5.2-12.7,12.4-23.7,21.5-33c9.1-9.4,19.7-16.8,31.7-22.2
		C428.2,656.7,441.2,654,455,654z"/>
	<path class="st0" d="M187.3,810.1h60.4l0.3,0l0.3,0c6.3,0,11.5-4.4,12.7-10.3l0-0.1h0c0.2-1,0.3-4-0.1-5.2c-1-0.2-1.9-0.3-2.7-0.3
		c-0.8,0-2.4,0-4.9,0h-66C187.3,807.8,187.3,784.9,187.3,810.1 M291.6,864.7c-4.9,2.4-10.4,4.3-16.5,5.7c-6.2,1.4-13,2.1-20.4,2.1
		H122.2v-5.2h130.3c20.8,0,37-6,48.5-18.1c11.5-12.1,17.3-27.7,17.3-47c0-8.1-1.9-16.5-5.7-25c-3.8-8.5-8.8-15.5-14.8-21.1
		c1.7,2.3,3.6,5,5.7,8.1c2.1,3.1,3.9,6.2,5.5,9.4c1.9,3.8,3.1,7.7,3.5,11.7c0.4,4,0.7,7.9,0.7,11.7c0,9.7-1.6,18.6-4.8,26.5
		c-3.2,8-7.7,14.8-13.4,20.6c-5.7,5.7-12.6,10.2-20.7,13.3c-8.1,3.1-17,4.7-26.7,4.7H112.1v-5.2l13-13V672.2l-13-13V654h109.5
		c10.4,0,19.8,2.2,28.2,6.5c8.4,4.3,15.5,10,21.2,16.9c6.8,5.8,12.5,12.5,16.9,20c0.8,1.4,1.6,2.8,2.3,4.3
		c9.4,16.8,7.9,35.3,3.9,50.9c0.2,0.2,0.3,0.3,0.5,0.5c0.2,0.2,0.3,0.3,0.5,0.5c0.9,0.7,1.8,1.4,2.9,2.1c1,0.7,2,1.5,2.9,2.3
		c0.6,0.5,1.4,1.3,2.6,2.6C333.3,790.7,332.3,844.5,291.6,864.7z M235.2,716.5l-0.4,0l0,0h0l0,0h0h0l0,0h0c-0.4,0-0.8,0-1.1,0h-0.1
		h0h0h0h0h0l0,0h0h0h0h0h0h0h0l0,0h0h0l0,0l0,0h0h0h0h0h0h0h0h0h0h0h0h0h0h0h0h0h0h0h0h0h0h0h0h0h0h0h0h0h0h0h0h0h0h0h0h0h0h0h0h0h0
		h0h0h0h0h0h0h0h0h0h0h0h0h0h0h0h0h0h-21.1h-2.6h-19.9v2.6v2.6v10.4h34.3l0.5,0l0.4,0c0.8,0,1.5-0.1,2.3-0.2l0,0l0,0
		c6.6-0.9,10.7-6.3,10.7-12.8C235.4,718.2,235.3,717.3,235.2,716.5z M212,711.3h15.2c2.4,0,4.5,0.3,6.2,0.9c-2.3-3.6-6.4-6.1-11-6.1
		l-0.4,0l-0.4,0h-44.5v26h5.2v-20.8h27.1H212z M177.1,784.1v26h5.2V789h66.3c1.9,0,3.7,0,5.5,0c1.7,0,3.4,0.3,4.9,1
		c-1.7-2.7-3.9-4.4-6.5-5.2c-1.6-0.5-3.2-0.7-4.9-0.7H177.1z M289,747.4c2.3-6.9,3.4-14.7,3.4-23.1c0-7.6-1.6-15-4.7-22.1
		c-3.1-7.1-7.3-13.6-12.5-19.5c8,11.4,12,23.6,12,36.4c0,8.7-1.3,16.6-3.9,23.9c1,0.7,2,1.4,3,2.1
		C287.2,745.8,288.1,746.5,289,747.4z"/>
	<path class="st0" d="M871.5,719.9v-0.1l-2.1,2.5l0,0l-8.3,9.8h-5.2v-5.2l13.8-15.6h53.9V706h-59.1l-13.5,15.6h-5.2V654h207.9v67.6
		h-7.3l-2.3-2.6l-1.2-1.3l0,0l-1.2-1.3h-55.9v1.3v1.3v2.6v3.1v2.1v5.2v2.6v10.4v2.6v10.4v2.6v10.4v2.6v10.4v2.6v10.4v2.6v10.7v2.6
		v10.1v2.6v10.4v2.6v10.4v2.6v2.3l2.9,2.9v5.1h-78v-5.2l13-13V725.3v-0.1v-0.6v-0.6v-0.6v-0.6v-0.6v-0.6V719v-0.7v-1.9h-48.9
		l-2.3,2.6h0L871.5,719.9z M1056.2,732.1l-3.9-5.2h6.5v-62.4h4.9v24.7v3.9v2.6V706v2.6V719v2.6v10.4H1056.2z M975.5,843.9l5.2,5.2
		V711.3h56.7l-4.2-5.2h-57.8V843.9z M998.7,867.3v5.2h-78v-5.2h73.1v-5L998.7,867.3z"/>
	<path class="st0" d="M1291,716.9L1291,716.9c1,1.6,1.9,3.2,2.8,4.9c-0.9-1.7-0.5-1,0.2,0.3c18.4,34.5,13.8,77.9-8.3,108.6
		c-13.6,19-33.3,33.1-57.2,38.5c-1.6,0.4-3.2,0.8-4.8,1.1c-6.4,1.4-12.8,2.1-19.2,2.1c-7.5,0-14.8-0.9-22-2.7
		c-7.2-1.8-14-4.3-20.4-7.4c-6.4-3.1-12.2-6.7-17.4-10.8c-5.2-4.1-9.6-8.4-13.3-12.9c7.6,8.3,17.3,15.2,29,20.6
		c11.7,5.4,24.8,8.1,39.2,8.1c15.8,0,29.9-3.2,42.4-9.5c12.5-6.3,23-14.5,31.5-24.5c8.5-10,15-21.1,19.5-33.4
		c4.5-12.3,6.8-24.5,6.8-36.4c0-15.3-2.9-29.3-8.7-42.1c-5.8-12.8-12.5-23.1-20.2-30.7c4.3,4.3,8.3,8.9,11.8,13.7
		C1285.7,708.4,1288.5,712.7,1291,716.9 M1194.6,810.1c7.1,0,13.6-1.4,19.5-4.2c5.9-2.8,11-6.5,15.2-11.2c4.3-4.7,7.5-10.2,9.9-16.5
		c2.3-6.3,3.5-13,3.5-20.2c0-10.2-2.9-23.9-9.6-32l-0.1-0.1l-0.1-0.1l-0.1-0.1c-8.8-6.7-15.5-8.3-22.8-8.9l-0.1,0h0
		c-0.8-0.1-1.5-0.1-2.3-0.2h0l-0.2,0c-12.4-0.7-23.5,2.7-32.1,10c-1.9,1.6-3.6,3.3-5.2,5.1c-0.8,0.9-1.5,1.9-2.3,2.8h0
		c-2.6,3.5-4.6,6.9-6,10.4c-0.6,1.3-1.1,2.6-1.6,3.8c-0.5,1.2-0.9,2.5-1.3,3.9c-0.2,0.5-0.3,1.1-0.4,1.6l0,0l0,0.1l0,0.1l0,0.1
		l0,0.1l0,0.1l0,0.1l0,0.1c-3.2,12.4-1.6,23.1,1.4,31.8l0,0c1.2,3.5,4.9,12.1,7.5,14.8C1175.2,807.2,1184.4,810.1,1194.6,810.1z
		 M1146.7,758.1c0,8,1.4,15.5,4.3,22.5c2.9,7,7,13,12.4,17.8c-3.6-4.9-6.5-10.5-8.5-17c-2-6.5-3-12.8-3-18.9
		c0-7.6,1.3-14.6,3.8-20.8c2.5-6.2,6-11.6,10.4-16.1c4.4-4.5,9.5-8,15.2-10.4c5.7-2.4,11.9-3.6,18.5-3.6c11.8,0,22.2,4,31.2,12
		c-4.3-5.4-9.6-9.6-15.7-12.7c-6.2-3.1-13-4.7-20.7-4.7c-7.1,0-13.6,1.4-19.5,4.2c-5.9,2.8-10.9,6.5-15.1,11.2
		c-4.2,4.7-7.4,10.2-9.8,16.5C1147.9,744.2,1146.7,750.9,1146.7,758.1z M1194.6,654c13.9,0,26.9,2.7,39,8.2
		c12.1,5.5,22.7,12.9,31.7,22.2c9,9.4,16.2,20.4,21.5,33c5.3,12.7,7.9,26.2,7.9,40.6c0,14.4-2.6,27.9-7.9,40.6
		c-5.3,12.7-12.4,23.7-21.5,33c-9,9.4-19.6,16.8-31.7,22.2c-12.1,5.5-25.2,8.2-39,8.2c-13.9,0-26.8-2.7-38.9-8.2
		c-12-5.5-22.6-12.9-31.7-22.2c-9.1-9.4-16.3-20.4-21.5-33c-5.2-12.7-7.8-26.2-7.8-40.6c0-14.4,2.6-27.9,7.8-40.6
		c5.2-12.7,12.4-23.7,21.5-33c9.1-9.4,19.7-16.8,31.7-22.2C1167.7,656.7,1180.7,654,1194.6,654z"/>
	<g>
		<path class="st2" d="M942.5,456.6c-118.4,0-214.8-96.4-214.8-214.8C727.7,123.4,824,27,942.5,27c118.4,0,214.8,96.4,214.8,214.8
			C1157.2,360.2,1060.9,456.6,942.5,456.6z M942.5,30.7c-116.4,0-211.1,94.7-211.1,211.1c0,116.4,94.7,211.1,211.1,211.1
			c116.4,0,211.1-94.7,211.1-211.1C1153.5,125.4,1058.8,30.7,942.5,30.7z"/>
	</g>
	<g>
		<path class="st0" d="M1830.2,679.2c0,13.7-9,25.2-25,25.2c-16,0-24.9-11.5-24.9-25.2c0-13.7,9-25.2,24.9-25.2
			C1821.3,654,1830.2,665.6,1830.2,679.2z M1805.2,697.9c11.3,0,17.6-8.2,17.6-18.7c0-10.4-6.4-18.7-17.6-18.7
			c-11.2,0-17.5,8.2-17.6,18.7C1787.7,689.7,1794,697.9,1805.2,697.9z M1811.2,682.7c9.2-2.1,7.3-16.2-3.9-16.2c-4,0-8.1,0-12.1,0
			v25.4h6.7V684h2.3l6,7.9h7.2v-1.5L1811.2,682.7z M1807.4,672.5c3.9,0,3.9,5.8,0,5.8h-5.4v-5.8H1807.4z"/>
	</g>
</g>
</svg>
