<?xml version="1.0" encoding="utf-8"?>
<!-- Generator: Adobe Illustrator 24.2.3, SVG Export Plug-In . SVG Version: 6.00 Build 0)  -->
<svg version="1.1" id="Livello_1" xmlns="http://www.w3.org/2000/svg" xmlns:xlink="http://www.w3.org/1999/xlink" x="0px" y="0px"
	 viewBox="0 0 500 500" style="enable-background:new 0 0 500 500;" xml:space="preserve">
<style type="text/css">
	.st0{fill:url(#SVGID_1_);}
	.st1{clip-path:url(#SVGID_3_);fill:#B863A4;}
	.st2{fill:#FFFFFF;}
	.st3{fill:#B863A4;}
	.st4{enable-background:new    ;}
</style>
<g>
	<g>
		
			<linearGradient id="SVGID_1_" gradientUnits="userSpaceOnUse" x1="136.7" y1="320.1" x2="362.7" y2="320.1" gradientTransform="matrix(1 0 0 -1 0 502)">
			<stop  offset="0" style="stop-color:#BC62A7"/>
			<stop  offset="0.3378" style="stop-color:#CA86B9"/>
			<stop  offset="0.5177" style="stop-color:#CF94C0"/>
			<stop  offset="0.6763" style="stop-color:#CA88BA"/>
			<stop  offset="0.9594" style="stop-color:#BC6AA9"/>
			<stop  offset="0.9972" style="stop-color:#BA65A6"/>
		</linearGradient>
		<polygon class="st0" points="362.7,294.9 136.7,294.9 136.7,68.9 362.7,68.9 362.7,199.5 		"/>
		<g>
			<g>
				<defs>
					<rect id="SVGID_2_" x="136.7" y="67.9" width="226" height="226"/>
				</defs>
				<clipPath id="SVGID_3_">
					<use xlink:href="#SVGID_2_"  style="overflow:visible;"/>
				</clipPath>
				<path class="st1" d="M363.4,199.5c-0.1,0.1-0.3,0.1-0.4,0.2c-1.6,0.8-2.8,2.2-4,3.6c-16.7,19.6-35.3,37.6-55.5,53.6
					c-14,11-28.9,21.2-45.9,26.7c-44.1,14.3-89.8-16.7-111.7-54c-3.3-5.6-6.1-11.5-8.3-17.5c-11.4-31.3-6.3-69.1,16.4-93.4
					c18.8-20.1,47.3-29.2,74.9-28.9s54.3,9,79.6,20.1c29,12.7,56.7,28.6,82.6,46.8c7.2,5,14.3,10.3,19.2,17.6
					c2.6,3.8,4.5,8.6,2.9,12.9c-1.8,4.8-7.2,7.1-12.1,8.4c-10.1,2.8-20.7,4-31.2,3.5C367.8,198.8,365.5,198.6,363.4,199.5z"/>
			</g>
		</g>
		<g>
			<path class="st2" d="M335.7,136.7c0,5-3.5,10.2-10.4,15.6c6.3,9.3,9.5,18,9.5,25.8c0,1.9-0.6,2.9-1.7,2.9c-0.9,0-1.4-1.3-1.4-3.8
				c0-7.7-2.7-15.6-8.1-23.5c-11.2,8.3-26.4,15.5-45.7,21.6c-19.3,6.1-36.3,9.1-51.2,9.1c-2.1,0-3.9-0.1-5.4-0.2
				c-12.4,17.2-18.5,33.8-18.5,49.8c0,10.9,3.4,19.5,10.1,25.8c6.8,6.3,16,9.5,27.6,9.5c22,0,41.6-10.5,58.8-31.6
				c10.4-12.7,15.6-24.8,15.6-36.3c0-6-1.8-10.8-5.4-14.4c-3.6-3.6-8.4-5.3-14.5-5.3c-9.6,0-20,5.1-31,15.2
				c-11.1,10.2-16.6,19.6-16.6,28.4c0,0.8,0.2,1.2,0.7,1.2c0.4-0.1,0.7-0.2,0.9-0.5c2.1-1.9,4-2.8,5.7-2.8c3.9,0,5.9,2.1,5.9,6.4
				c0,5.7-2.8,8.6-8.3,8.6c-5.1,0-7.6-3.1-7.6-9.3c0-11,5.6-22,16.8-32.8c11.2-10.8,22.5-16.3,34-16.3c14.8,0,22.2,8.1,22.2,24.4
				c0,16.8-8,32.2-24.1,46c-16.1,13.9-34,20.8-53.6,20.8c-13.7,0-25.2-4.6-34.5-13.8c-9.3-9.2-14-20.5-14-34
				c0-13.1,4.6-26.6,13.8-40.4c-33.4-6.2-50.1-19.4-50.1-39.6c0-12,6.2-22.1,18.6-30.2c12.4-8.1,27.9-12.2,46.4-12.2
				c25.9,0,52,8.6,78.4,25.8c4.6-0.9,9.2-1.4,14-1.4C328,125.4,335.7,129.2,335.7,136.7z M295.4,127.2
				c-23.5-13.6-48.5-20.4-74.9-20.4c-16.4,0-30.7,3.9-42.9,11.6s-18.4,16.8-18.4,27.1c0,18.5,15.7,30.4,47,35.8
				C225.7,154.2,255.4,136.2,295.4,127.2z M322.6,152.1c-5.9-8.6-13.9-16.2-24-22.8c-14.4,3.9-28.5,10.7-42.3,20.3
				c-13.7,9.6-25,20.6-33.8,32.8c16.1,0,34-3,53.6-8.9C295.7,167.7,311.2,160.6,322.6,152.1z M333.8,136.7c0-6.3-6.2-9.5-18.5-9.5
				c-3.9,0-8.5,0.5-13.8,1.6c9.2,6.3,16.8,13.7,22.8,22.1C330.7,145.6,333.8,140.8,333.8,136.7z"/>
		</g>
	</g>
	<g>
		<path d="M189.6,423.5c0,0.3-1.9,2.6-5.6,6.7c-4.1,4.5-7.6,6.7-10.5,6.7c-1.9,0-3.5-0.7-4.8-2.1s-2-3.1-2-5.1c0-2.2,0.9-4.6,2.7-7
			s4.3-4.5,7.3-6.2c2.6-1.5,4.7-2.2,6.3-2.2c2,0,3,1.2,3,3.5c0,1.8-0.6,3.7-1.9,5.5c-1.2,1.8-2.5,2.8-3.7,2.8s-1.8-0.6-1.8-1.8
			c0-1.4,1.2-2.7,3.7-3.9c1.9-0.9,2.8-2.2,2.8-3.7c0-1.2-0.7-1.8-2-1.8c-2.2,0-4.9,2.2-8.2,6.6c-3.2,4.4-4.8,8.1-4.8,11.1
			c0,2.5,1.2,3.8,3.5,3.8c3.7,0,8.7-4.2,15-12.5c0.3-0.4,0.6-0.6,0.8-0.6C189.5,423.3,189.6,423.3,189.6,423.5z"/>
		<path d="M213.3,423.4c0,0.4-0.8,1.4-2.4,3c-2.4,2.3-4.5,3.5-6.5,3.5c-0.8,0-1.6-0.2-2.2-0.5c-3.5,5-6.8,7.5-9.9,7.5
			c-1.6,0-3-0.7-4.1-2s-1.7-2.9-1.7-4.7c0-4.1,2.7-8.1,8.1-11.9c3.8-2.7,6.9-4,9.4-4c2.3,0,3.4,1.2,3.4,3.7c0,3.1-1.6,6.8-4.8,11.1
			c0.5,0.3,1.1,0.5,1.8,0.5c1.2,0,2.6-0.6,4.2-1.7c1.6-1.1,2.9-2.5,3.9-4c0.3-0.4,0.5-0.6,0.6-0.6
			C213.2,423.3,213.3,423.3,213.3,423.4z M206.8,418.1c0-2.2-1-3.2-2.9-3.2c-2.4,0-5.4,2.3-8.9,7c-3.5,4.6-5.2,8.6-5.2,11.7
			c0,1.8,0.9,2.8,2.6,2.8c2.9,0,6-2.4,9.4-7.1c-0.8-0.9-1.2-1.7-1.2-2.6c0-1.3,0.5-2.7,1.6-4c1-1.4,2.1-2.1,3-2.1
			c0.4,0,0.7,0.3,0.9,0.8C206.6,420.2,206.8,419.2,206.8,418.1z"/>
		<path d="M245.4,423.5c0,0.6-1.9,3.2-5.8,7.8c-3.2,3.8-5.7,5.7-7.5,5.7c-1.2,0-2.2-0.5-3-1.4s-1.2-2.1-1.2-3.4
			c0-1.2,0.2-2.3,0.7-3.3s1.8-3.1,3.9-6.1c2.2-3.2,3.2-5.2,3.2-6.1c0-1.1-0.6-1.6-1.7-1.6c-3.9,0-9.9,7.2-18,21.7
			c-1.3-0.1-2.1-0.2-2.4-0.2c-0.9,0-1.8,0.1-2.6,0.2l6.2-9.9c3.5-5.7,5.3-9.2,5.3-10.6c0-0.8-0.3-1.2-1-1.2c-1.4,0-4.1,2.9-8.1,8.6
			c-0.2,0.3-0.4,0.5-0.6,0.6c-0.1,0-0.2-0.1-0.2-0.2s0.1-0.2,0.2-0.3l0.8-1c4.1-5.5,6.8-8.2,8.3-8.2c0.9,0,1.7,0.4,2.3,1.2
			c0.6,0.8,1,1.8,1,3c0,1.7-1,4.1-3,7.1c3.1-4.3,5.6-7.3,7.3-8.9s3.3-2.4,4.7-2.4c1.2,0,2.2,0.5,3,1.4s1.2,2.1,1.2,3.6
			c0,1.8-1.2,4.5-3.7,8.2c-2.5,3.8-3.8,6.2-3.8,7.2c0,1.1,0.5,1.6,1.6,1.6c2.4,0,6.5-4.2,12.3-12.7c0.1-0.3,0.3-0.4,0.4-0.4
			C245.3,423.2,245.4,423.3,245.4,423.5z"/>
		<path d="M272.5,394.8c0,2.4-1.7,5.4-5,8.9c-3.4,3.6-7.8,7.1-13.2,10.5h6.9l-0.4,0.6h-7l-3.3,6.4c-4,7.9-7.5,13.8-10.3,17.8
			c-2.9,4-6.2,7.5-9.9,10.7c-5.2,4.3-9.9,6.4-14.4,6.4c-2,0-3-0.3-3-0.9c0-0.3,0.1-0.4,0.4-0.4c0.2,0,0.4,0,0.5,0.1
			c1,0.3,1.9,0.4,2.7,0.4c3.6,0,7.2-1.6,10.9-4.8c2.2-2,4.2-4.3,5.9-7c1.4-2.1,4.7-8,9.9-17.5l6.2-11.2h-4.3l0.3-0.6h4.4
			c3.4-5.8,7.2-10.8,11.3-15c4.1-4.2,7.3-6.3,9.6-6.3C271.9,392.9,272.5,393.5,272.5,394.8z M272.1,394.7c0-0.9-0.4-1.3-1.3-1.3
			c-2,0-4.8,2.3-8.3,7c-1.7,2.3-4.4,6.7-7.8,13.1c4.4-3,8.4-6.5,12-10.4C270.2,399.2,272.1,396.4,272.1,394.7z"/>
		<path d="M276.5,423.5c0,0.1-0.2,0.4-0.7,1l-1.7,2.2c-5.5,6.8-10.3,10.2-14.2,10.2c-1.9,0-3.4-0.7-4.7-2s-1.9-3-1.9-5.1
			c0-4.8,3.3-9,10-12.7c3.5-1.9,6.4-2.9,8.6-2.9c1,0,1.8,0.3,2.5,0.9s1,1.3,1,2.1c0,1.9-1.3,3.6-3.8,4.9s-6.7,2.6-12.6,3.8
			c-1.8,2.7-2.7,5-2.7,6.9c0,2.3,1.2,3.4,3.7,3.4c4.2,0,9.4-4.1,15.5-12.4c0.3-0.4,0.6-0.6,0.8-0.6
			C276.4,423.3,276.5,423.4,276.5,423.5z M273.1,416.1c0-0.9-0.5-1.3-1.4-1.3c-1.4,0-3.3,1-5.6,2.9c-2.3,2-4.6,4.5-6.8,7.6
			c3.8-1,7.1-2.4,9.8-4.2C271.8,419.4,273.1,417.7,273.1,416.1z"/>
		<path d="M291.2,414.3l-0.3,0.6h-5.2l-8.9,15.3c-1.1,1.8-1.6,3.3-1.6,4.4c0,1.2,0.6,1.8,1.9,1.8c2.4,0,6.5-4.2,12.3-12.7
			c0.2-0.3,0.3-0.4,0.5-0.4s0.2,0.1,0.2,0.2s-0.2,0.3-0.4,0.6l-1.7,2.4c-5,7-8.8,10.5-11.3,10.5c-1.3,0-2.3-0.5-3.1-1.4
			c-0.8-0.9-1.3-2-1.3-3.4c0-1.6,0.7-3.6,2.1-6l6.7-11.3H277l0.4-0.6h4l4.7-7.8c0.8,0.2,1.6,0.3,2.3,0.3c0.7,0,1.5-0.1,2.3-0.3
			l-4.6,7.8H291.2z"/>
		<path d="M304.8,414.3l-0.3,0.6h-5.2l-8.9,15.3c-1.1,1.8-1.6,3.3-1.6,4.4c0,1.2,0.6,1.8,1.9,1.8c2.4,0,6.5-4.2,12.3-12.7
			c0.2-0.3,0.3-0.4,0.5-0.4s0.2,0.1,0.2,0.2s-0.2,0.3-0.4,0.6l-1.7,2.4c-5,7-8.8,10.5-11.3,10.5c-1.3,0-2.3-0.5-3.1-1.4
			c-0.8-0.9-1.3-2-1.3-3.4c0-1.6,0.7-3.6,2.1-6l6.7-11.3h-4.1l0.4-0.6h4l4.7-7.8c0.8,0.2,1.6,0.3,2.3,0.3c0.7,0,1.5-0.1,2.3-0.3
			l-4.6,7.8H304.8z"/>
		<path d="M317.2,423.5c0,0.1-0.2,0.3-0.4,0.6l-1.7,2.4c-5,7-8.9,10.5-11.5,10.5c-1.3,0-2.3-0.4-3.1-1.3c-0.8-0.9-1.3-2-1.3-3.3
			c0-1.5,0.9-3.9,2.8-7l6.2-10.6c0.8,0.2,1.5,0.3,2,0.3c0.7,0,1.7-0.1,3-0.3l-9.1,14.9c-1.3,2.2-2,3.8-2,5s0.6,1.8,1.9,1.8
			c2.4,0,6.6-4.2,12.5-12.7c0.1-0.3,0.3-0.4,0.4-0.4C317.2,423.2,317.2,423.3,317.2,423.5z M316.7,406.9c0,0.9-0.4,1.8-1.2,2.6
			c-0.8,0.8-1.6,1.2-2.6,1.2c-1.2,0-1.8-0.6-1.8-1.8c0-0.9,0.4-1.7,1.2-2.5s1.7-1.2,2.6-1.2C316.1,405.2,316.7,405.8,316.7,406.9z"
			/>
	</g>
	<circle class="st3" cx="150.7" cy="423.5" r="3.5"/>
	<circle class="st3" cx="329.2" cy="423.5" r="3.5"/>
	<g class="st4">
		<path class="st3" d="M132.3,386.4c-8.4,0-15.3-2.8-20.8-8.4c-5.5-5.6-8.2-12.5-8.2-20.7c0-8.2,2.7-15.1,8.2-20.7
			c5.5-5.6,12.4-8.3,20.8-8.3c5,0,9.7,1.2,14,3.5c4.3,2.4,7.6,5.6,10,9.6l-9.5,5.5c-1.4-2.5-3.3-4.5-5.9-5.9
			c-2.6-1.4-5.4-2.1-8.6-2.1c-5.4,0-9.8,1.7-13.1,5.1c-3.3,3.4-5,7.8-5,13.2c0,5.4,1.7,9.8,5,13.2c3.3,3.4,7.7,5.1,13.1,5.1
			c3.2,0,6.1-0.7,8.7-2.1c2.6-1.4,4.5-3.3,5.9-5.8l9.5,5.5c-2.4,4-5.7,7.2-10,9.6C142.1,385.2,137.4,386.4,132.3,386.4z"/>
		<path class="st3" d="M194.9,329.4h10.9v55.8h-10.9v-23.1h-20.7v23.1h-11v-55.8h11v22.2h20.7V329.4z"/>
		<path class="st3" d="M216.1,329.4h11v55.8h-11V329.4z"/>
		<path class="st3" d="M264,386.4c-8.4,0-15.3-2.8-20.8-8.4c-5.5-5.6-8.2-12.5-8.2-20.7c0-8.2,2.7-15.1,8.2-20.7
			c5.5-5.6,12.4-8.3,20.8-8.3c5,0,9.7,1.2,14,3.5c4.3,2.4,7.6,5.6,10,9.6l-9.5,5.5c-1.4-2.5-3.3-4.5-5.9-5.9
			c-2.6-1.4-5.4-2.1-8.6-2.1c-5.4,0-9.8,1.7-13.1,5.1c-3.3,3.4-5,7.8-5,13.2c0,5.4,1.7,9.8,5,13.2c3.3,3.4,7.7,5.1,13.1,5.1
			c3.2,0,6.1-0.7,8.7-2.1c2.6-1.4,4.5-3.3,5.9-5.8l9.5,5.5c-2.4,4-5.7,7.2-10,9.6C273.8,385.2,269.1,386.4,264,386.4z"/>
		<path class="st3" d="M320.7,386.4c-8.4,0-15.3-2.8-20.8-8.4c-5.5-5.6-8.2-12.5-8.2-20.7c0-8.2,2.7-15.1,8.2-20.7
			c5.5-5.6,12.4-8.3,20.8-8.3c5,0,9.7,1.2,14,3.5c4.3,2.4,7.6,5.6,10,9.6l-9.5,5.5c-1.4-2.5-3.3-4.5-5.9-5.9
			c-2.6-1.4-5.4-2.1-8.6-2.1c-5.4,0-9.8,1.7-13.1,5.1c-3.3,3.4-5,7.8-5,13.2c0,5.4,1.7,9.8,5,13.2c3.3,3.4,7.7,5.1,13.1,5.1
			c3.2,0,6.1-0.7,8.7-2.1c2.6-1.4,4.5-3.3,5.9-5.8l9.5,5.5c-2.4,4-5.7,7.2-10,9.6C330.5,385.2,325.8,386.4,320.7,386.4z"/>
		<path class="st3" d="M387.9,385.2l-3.5-10h-22.9l-3.3,10h-11.9l19.5-55.8h13.6l19.7,55.8H387.9z M365,364.9h15.7l-8.1-22.8
			L365,364.9z"/>
	</g>
</g>
</svg>
