<svg xmlns="http://www.w3.org/2000/svg" width="66" height="52.853" viewBox="0 0 66 52.853">
  <g id="Raggruppa_719" data-name="Raggruppa 719" transform="translate(3229 -1545)">
    <path id="Tracciato_469" data-name="Tracciato 469" d="M66,139.5v35.59a5.312,5.312,0,0,1-5.312,5.312H5.312A5.312,5.312,0,0,1,0,175.09V139.5Z" transform="translate(-3229 1417.452)" fill="#f5f5f5"/>
    <path id="Tracciato_470" data-name="Tracciato 470" d="M66,133.484v-2.656L33,129.5,0,130.828v35.59a5.312,5.312,0,0,0,5.312,5.312H7.968a5.312,5.312,0,0,1-5.312-5.312V133.484Z" transform="translate(-3229 1426.124)" fill="#e6e6e6"/>
    <path id="Tracciato_471" data-name="Tracciato 471" d="M66,54.812v6.64H0v-6.64A5.312,5.312,0,0,1,5.312,49.5H60.688A5.312,5.312,0,0,1,66,54.812Z" transform="translate(-3229 1495.5)" fill="#50758d"/>
    <path id="Tracciato_476" data-name="Tracciato 476" d="M26.238,77.726a2.988,2.988,0,1,1,2.988-2.988A2.991,2.991,0,0,1,26.238,77.726Z" transform="translate(-3249.163 1476.205)" fill="#fd646f"/>
    <path id="Tracciato_477" data-name="Tracciato 477" d="M90.488,77.976a2.988,2.988,0,1,1,2.988-2.988A2.991,2.991,0,0,1,90.488,77.976Z" transform="translate(-3304.88 1475.988)" fill="#ffc682"/>
    <path id="Tracciato_478" data-name="Tracciato 478" d="M154.488,77.976a2.988,2.988,0,1,1,2.988-2.988A2.991,2.991,0,0,1,154.488,77.976Z" transform="translate(-3360.381 1475.988)" fill="#93ddb7"/>
    <path id="Tracciato_479" data-name="Tracciato 479" d="M247.774,77.976H219.488a2.988,2.988,0,1,1,0-5.976h28.286a2.988,2.988,0,1,1,0,5.976Z" transform="translate(-3416.749 1475.988)" fill="#f5f5f5"/>
    <g id="Raggruppa_717" data-name="Raggruppa 717" transform="translate(-3218.471 1565.637)">
      <path id="Tracciato_480" data-name="Tracciato 480" d="M203.082,228.409a2.087,2.087,0,0,1-1.91-2.921l8.444-19.333a2.086,2.086,0,1,1,3.822,1.67l-8.444,19.333A2.086,2.086,0,0,1,203.082,228.409Z" transform="translate(-184.834 -204.904)" fill="#372dbd"/>
      <path id="Tracciato_481" data-name="Tracciato 481" d="M89.193,247.545a2.079,2.079,0,0,1-1.475-.611L79.9,239.114a2.086,2.086,0,0,1,0-2.949l7.716-7.716a2.086,2.086,0,0,1,2.949,2.949l-6.242,6.242,6.346,6.346a2.085,2.085,0,0,1-1.475,3.56Z" transform="translate(-79.287 -224.792)" fill="#372dbd"/>
      <path id="Tracciato_482" data-name="Tracciato 482" d="M329.5,247.545a2.079,2.079,0,0,0,1.475-.611l7.821-7.821a2.086,2.086,0,0,0,0-2.949l-7.716-7.716a2.086,2.086,0,1,0-2.949,2.949l6.242,6.242-6.346,6.346a2.085,2.085,0,0,0,1.475,3.56Z" transform="translate(-294.462 -224.792)" fill="#372dbd"/>
    </g>
  </g>
</svg>
