<svg xmlns="http://www.w3.org/2000/svg" width="14.911" height="18.813" viewBox="0 0 14.911 18.813">
  <g id="Raggruppa_734" data-name="Raggruppa 734" transform="translate(2372.211 46.431)">
    <path id="Tracciato_517" data-name="Tracciato 517" d="M14.7-14.581l-2.953,1.094a3.43,3.43,0,0,0-3.428-2.241,3.526,3.526,0,0,0-2.34.705,2.2,2.2,0,0,0-.837,1.747,1.68,1.68,0,0,0,.567,1.312,4.824,4.824,0,0,0,1.872.877l2.465.725a6.926,6.926,0,0,1,2.03.962,4.163,4.163,0,0,1,1.437,1.648,4.755,4.755,0,0,1,.475,2.083,5.773,5.773,0,0,1-1.826,4.252A7.29,7.29,0,0,1,6.829.382Q1.4.382-.211-4.1l2.94-1.042a4.169,4.169,0,0,0,4.3,2.821,3.861,3.861,0,0,0,2.742-.85,2.6,2.6,0,0,0,.9-1.931,1.758,1.758,0,0,0-.336-1.074,2.174,2.174,0,0,0-.85-.692,16.785,16.785,0,0,0-2.057-.672,18.357,18.357,0,0,1-3.21-1.173,4.457,4.457,0,0,1-1.727-1.608,4.594,4.594,0,0,1-.666-2.5A5.133,5.133,0,0,1,3.6-16.862a7.079,7.079,0,0,1,4.852-1.569A6.253,6.253,0,0,1,14.7-14.581Z" transform="translate(-2372 -28)" fill="#372dbd"/>
    <path id="Tracciato_516" data-name="Tracciato 516" d="M4.891-11.638H2.481l.42-2.5h2.41ZM2.943,0H.533L2.276-10.428h2.41Z" transform="translate(-2367 -28)" fill="#372dbd"/>
  </g>
</svg>
