<svg id="github" xmlns="http://www.w3.org/2000/svg" width="24.202" height="23.698" viewBox="0 0 24.202 23.698">
  <g id="Raggruppa_1" data-name="Raggruppa 1" transform="translate(0 0)">
    <path id="Tracciato_4" data-name="Tracciato 4" d="M12.1,5.329A12.157,12.157,0,0,0,8.277,29.007c.605.112.826-.263.826-.585,0-.289-.011-1.053-.017-2.066-3.366.734-4.077-1.629-4.077-1.629a3.208,3.208,0,0,0-1.343-1.777c-1.1-.753.082-.738.082-.738A2.542,2.542,0,0,1,5.6,23.463a2.572,2.572,0,0,0,3.523,1.009,2.593,2.593,0,0,1,.768-1.625c-2.686-.307-5.512-1.349-5.512-6a4.709,4.709,0,0,1,1.246-3.261,4.378,4.378,0,0,1,.118-3.214s1.017-.327,3.328,1.245a11.422,11.422,0,0,1,6.06,0c2.31-1.572,3.325-1.245,3.325-1.245a4.384,4.384,0,0,1,.121,3.214,4.7,4.7,0,0,1,1.243,3.261c0,4.667-2.829,5.694-5.524,5.995a2.906,2.906,0,0,1,.821,2.249c0,1.625-.015,2.935-.015,3.332,0,.325.218.7.832.584A12.158,12.158,0,0,0,12.1,5.329Z" transform="translate(0 -5.329)" fill="#fff"/>
  </g>
</svg>
