<svg xmlns="http://www.w3.org/2000/svg" width="66" height="66" viewBox="0 0 66 66">
  <g id="Raggruppa_729" data-name="Raggruppa 729" transform="translate(3148 -3135)">
    <path id="Tracciato_487" data-name="Tracciato 487" d="M56.994,21.15c0-.051.007-.1.007-.15a20.988,20.988,0,0,0-40.046-8.8A14.822,14.822,0,0,0,15,12a15,15,0,0,0,0,30H55.5A10.476,10.476,0,0,0,56.994,21.15Z" transform="translate(-3148.002 3135)" fill="#372dbd"/>
    <g id="Raggruppa_724" data-name="Raggruppa 724" transform="translate(-3148 3135)">
      <path id="Tracciato_488" data-name="Tracciato 488" d="M15,85.333a15,15,0,0,0-15,15H0v.079c0,.005,0,.011,0,.016H0c0,.006,0,.011,0,.017v.041c0,.006,0,.011,0,.017v0c0,.005,0,.01,0,.016v.041c0,.005,0,.011,0,.016v.023s0,.01,0,.015v0c0,.005,0,.011,0,.016v0s0,.009,0,.014v.078h0v.057c0,.005,0,.011,0,.016v.058h0v.019c0,.005,0,.011,0,.016v0s0,.01,0,.014v.061c0,.005,0,.011,0,.016v.094h0v.058c0,.005,0,.011,0,.016v.021c0,.005,0,.011,0,.017v.02h0v.039s0,.01,0,.015v0c0,.005,0,.011,0,.017v.04c0,.011,0,.023,0,.034v.04c0,.005,0,.011,0,.017v.04l0,.034v.076h0v.02l0,.035v.039l0,.017v0c0,.005,0,.011,0,.016h0l0,.017v0l0,.034v0l0,.017h0l0,.017v0l0,.017v0c0,.006,0,.011,0,.017h0l0,.018v0l0,.035v0l0,.017h0l0,.017h0l0,.017v0l0,.034v0l0,.035v0l0,.018h0l0,.017h0l0,.017v0l0,.034v0l0,.017h0l0,.016v0l0,.017v0l0,.016h0l0,.017v0l0,.035v0l0,.035v0l0,.017v0l0,.017h0l0,.018h0l0,.035v0l0,.018h0l0,.018h0l0,.017v0l0,.035v0l.005.035h0l.005.036h0l0,.018h0l.005.036h0l.005.036h0l.006.036h0l0,.018h0l.005.035v0l.006.035h0l.015.091h0c.009.055.019.109.029.163h0A14.984,14.984,0,0,0,5.3,111.772h0l.19.159h0l.026.022h0l.025.021h0l.013.01h0l.013.01h0l.013.01h0l.026.021h0l.013.011h0l.013.01h0l.013.01h0l.013.01h0l.013.01,0,0,.011.009h0l.012.01,0,0,.012.01h0l.012.009,0,0,.012.009,0,0,.01.008,0,0,.012.009,0,0,.011.008,0,0,.012.009,0,0,.012.009,0,0,.01.007,0,0,.011.009,0,0,.008.006,0,0,.011.009,0,0,.009.007,0,0,.009.007.005,0,.01.008,0,0,.008.006.005,0,.01.008.006,0,.007.005.007.005.009.006.006,0,.007.005.007.005.008.006.005,0,.009.007.006,0,.008.006,0,0,.011.008.005,0,.007.005.005,0,.01.007.006,0,.007,0,.008.006.007.005.006,0,.008.006.008.006.006,0,.007,0,.009.007.007,0,.005,0,.01.007.006,0,.007,0,0,0,.012.009,0,0,.007.005,0,0,.012.009,0,0,.013.009,0,0,.007.005,0,0,.014.01,0,0,.008.005,0,0,.013.009,0,0,.008.006,0,0,.014.01,0,0,.025.017,0,0,.026.018h0l.016.011h0l.026.018h0l.026.018,0,0,.026.018h0l.017.012h0l.027.018h0l.027.019h0l.018.012h0l.028.019h0l.027.019h0a14.954,14.954,0,0,0,3.354,1.69l.019.007.009,0,.176.061.01,0,0,0,.076.025h0l.108.035a5.956,5.956,0,0,0,7.463-3.814,6.04,6.04,0,0,0-3.8-7.613l-.03-.01-.011,0-.02-.007A3,3,0,0,1,15,97.333a2.922,2.922,0,0,1,1.784.587l.016.012.01.008.027.021a6,6,0,0,0,7.472-9.39l-.118-.092,0,0,0,0-.1-.075h0L24,88.331l-.011-.008-.032-.024a14.947,14.947,0,0,0-4.744-2.367h0l-.035-.01h0l-.018-.005h0l-.036-.01h0l-.108-.03h0l-.036-.01h0l-.054-.015h0l-.054-.014h0l-.036-.009h0l-.054-.014h0l-.054-.014h0l-.035-.009h0l-.035-.009h0l-.017,0h0l-.035-.009h0l-.018,0h0l-.036-.009h0l-.035-.008h0l-.017,0h0l-.035-.008h0l-.018,0h0l-.036-.008h0l-.035-.008h0l-.017,0h0L18.3,85.7h0l-.018,0h0l-.018,0h0l-.018,0h0l-.035-.008h0l-.017,0h0l-.035-.008h0l-.018,0h0l-.018,0h0l-.017,0h0l-.034-.007h0l-.017,0h0l-.036-.007h0l-.018,0h0l-.018,0h0l-.018,0h0l-.035-.007h0l-.017,0h0l-.017,0h0l-.017,0h0l-.035-.007h0l-.017,0h0l-.017,0h0l-.017,0h0l-.017,0h0l-.017,0h0l-.017,0h0l-.017,0h0l-.016,0h0l-.017,0h0l-.017,0h0l-.017,0h0l-.016,0h0l-.015,0h0l-.016,0h0l-.017,0h0l-.016,0h0l-.016,0h0l-.015,0h0l-.016,0h0l-.016,0h0l-.015,0h0l-.016,0h0l-.016,0h0l-.016,0h0l-.017,0h0l-.016,0h0l-.017,0h0l-.017,0h0l-.016,0h0l-.016,0h0l-.016,0h0l-.017,0h0l-.017,0h0l-.016,0h0l-.016,0h0l-.017,0h0l-.017,0h0l-.017,0h0l-.017,0h0l-.017,0h0l-.017,0h0l-.016,0h0l-.017,0h0l-.017,0h0l-.016,0h0l-.017,0h0l-.016,0h0l-.017,0h0l-.017,0h0l-.016,0h0l-.016,0h0l-.017,0h0l-.017,0h0l-.017,0h0l-.016,0h0l-.017,0h0l-.017,0h0l-.017,0h0l-.017,0h0l-.035,0h0l-.017,0h0l-.017,0h0l-.017,0h0l-.017,0h0l-.017,0h0l-.017,0h0l-.035,0h0l-.017,0h0l-.016,0h0l-.017,0h0l-.035,0h0l-.017,0h0l-.016,0h0l-.017,0h0l-.017,0h-.6l-.035,0H15Z" transform="translate(-0.002 -73.333)" fill="#372dbd"/>
      <path id="Tracciato_489" data-name="Tracciato 489" d="M128.371,0H126.63l-.033,0h-.142l-.032,0h-.142l-.037,0h-.126l-.053.006h-.139l-.015,0h-.139l-.054.007h-.124l-.044.006h0l-.012,0h-.109l-.056.008h0l-.011,0h-.035l-.011,0h0l-.012,0h0l-.012,0h0l-.013,0h0l-.056.008h0l-.013,0h0l-.014,0h0l-.013,0h0l-.012,0h0l-.012,0h0l-.013,0h0l-.028,0h0l-.058.009h0l-.012,0h0l-.011,0h0l-.011,0h0l-.01,0h-.005l-.01,0h0l-.012,0h0l-.084.014h0l-.012,0h0l-.011,0h0l-.011,0h0l-.012,0h0l-.013,0h0l-.014,0h0l-.087.015h0l-.014,0h0l-.013,0h0l-.013,0h0l-.013,0h0l-.013,0h0l-.086.016h0l-.011,0h0l-.011,0h0l-.011,0h0l-.013,0h0l-.013,0h0l-.116.022h0l-.014,0h0l-.014,0h0l-.321.066h0L123.8.5h0a21.021,21.021,0,0,0-16.214,17.52l-.008.059,0,.033c-.008.059-.016.119-.024.178l-.007.057v0l-.008.062a6,6,0,0,0,11.914,1.437l.009-.07,0-.029.006-.041A9.029,9.029,0,0,1,128.371,12a8.865,8.865,0,0,1,4.36,1.122l.036.02.025.015.061.035a6,6,0,0,0,6.054-10.361l-.054-.031h0l-.07-.04,0,0-.012-.007-.007,0-.007,0-.1-.059-.03-.017-.048-.027-.034-.019h0l-.013-.007h0l-.053-.029h0l-.012-.007h0l-.053-.029h0l-.012-.007h0l-.054-.029h0A20.853,20.853,0,0,0,131.045.169h0l-.164-.02h0l-.065-.008h0l-.016,0h0L130.75.133h0l-.015,0h0l-.015,0h0l-.047-.005h-.022l-.046,0h-.036l-.042,0h-.04l-.029,0h-.037l-.044,0h-.04l-.043,0h-.041l-.024,0h-.042l-.04,0H130.1l-.026,0h-.126l-.038,0h-1.538Z" transform="translate(-92.371)" fill="#372dbd"/>
    </g>
    <g id="Raggruppa_726" data-name="Raggruppa 726" transform="translate(-3139.001 3156)">
      <path id="Tracciato_493" data-name="Tracciato 493" d="M70,149.337h36a6,6,0,0,1,6,6v3a6,6,0,0,1-6,6H70a6,6,0,0,1-6-6v-3A6,6,0,0,1,70,149.337Z" transform="translate(-63.998 -149.337)" fill="#6b61e8"/>
      <path id="Tracciato_494" data-name="Tracciato 494" d="M70,256h36a6,6,0,0,1,6,6v3a6,6,0,0,1-6,6H70a6,6,0,0,1-6-6v-3A6,6,0,0,1,70,256Z" transform="translate(-63.998 -240.998)" fill="#6b61e8"/>
      <path id="Tracciato_495" data-name="Tracciato 495" d="M70,362.667h36a6,6,0,0,1,6,6v3a6,6,0,0,1-6,6H70a6,6,0,0,1-6-6v-3A6,6,0,0,1,70,362.667Z" transform="translate(-63.998 -332.668)" fill="#6b61e8"/>
    </g>
    <g id="Raggruppa_727" data-name="Raggruppa 727" transform="translate(-3139 3165)">
      <path id="Tracciato_496" data-name="Tracciato 496" d="M64,426.667h48a6,6,0,0,1-6,6H70a6,6,0,0,1-6-6Z" transform="translate(-64.002 -396.667)" fill="#8782ce"/>
      <path id="Tracciato_497" data-name="Tracciato 497" d="M64,213.333h48a6,6,0,0,1-6,6H70a6,6,0,0,1-6-6Z" transform="translate(-64.002 -213.333)" fill="#8782ce"/>
      <path id="Tracciato_498" data-name="Tracciato 498" d="M64,320h48a6,6,0,0,1-6,6H70a6,6,0,0,1-6-6Z" transform="translate(-64.002 -305)" fill="#8782ce"/>
    </g>
    <g id="Raggruppa_728" data-name="Raggruppa 728" transform="translate(-3133 3162)">
      <circle id="Ellisse_15" data-name="Ellisse 15" cx="1.5" cy="1.5" r="1.5" transform="translate(0 0)" fill="#f2f2f2"/>
      <path id="Tracciato_499" data-name="Tracciato 499" d="M278.838,192h9a1.5,1.5,0,0,1,1.5,1.5h0a1.5,1.5,0,0,1-1.5,1.5h-9a1.5,1.5,0,0,1-1.5-1.5h0A1.5,1.5,0,0,1,278.838,192Z" transform="translate(-253.338 -191.997)" fill="#f2f2f2"/>
      <circle id="Ellisse_16" data-name="Ellisse 16" cx="1.5" cy="1.5" r="1.5" transform="translate(0 15.001)" fill="#f2f2f2"/>
      <path id="Tracciato_500" data-name="Tracciato 500" d="M278.838,298.667h9a1.5,1.5,0,0,1,1.5,1.5h0a1.5,1.5,0,0,1-1.5,1.5h-9a1.5,1.5,0,0,1-1.5-1.5h0A1.5,1.5,0,0,1,278.838,298.667Z" transform="translate(-253.338 -283.667)" fill="#f2f2f2"/>
      <circle id="Ellisse_17" data-name="Ellisse 17" cx="1.5" cy="1.5" r="1.5" transform="translate(0 30)" fill="#f2f2f2"/>
      <path id="Tracciato_501" data-name="Tracciato 501" d="M278.838,405.337h9a1.5,1.5,0,0,1,1.5,1.5h0a1.5,1.5,0,0,1-1.5,1.5h-9a1.5,1.5,0,0,1-1.5-1.5h0A1.5,1.5,0,0,1,278.838,405.337Z" transform="translate(-253.338 -375.336)" fill="#f2f2f2"/>
    </g>
  </g>
</svg>
