<svg id="instagram" xmlns="http://www.w3.org/2000/svg" width="24.202" height="24.203" viewBox="0 0 24.202 24.203">
  <g id="Raggruppa_3" data-name="Raggruppa 3">
    <g id="Raggruppa_2" data-name="Raggruppa 2">
      <path id="Tracciato_5" data-name="Tracciato 5" d="M16.639,0H7.563A7.564,7.564,0,0,0,0,7.563v9.076A7.564,7.564,0,0,0,7.563,24.2h9.076A7.564,7.564,0,0,0,24.2,16.639V7.563A7.564,7.564,0,0,0,16.639,0Zm5.294,16.639a5.3,5.3,0,0,1-5.294,5.294H7.563a5.3,5.3,0,0,1-5.294-5.294V7.563A5.3,5.3,0,0,1,7.563,2.269h9.076a5.3,5.3,0,0,1,5.294,5.294Z" fill="#fff"/>
    </g>
  </g>
  <g id="Raggruppa_5" data-name="Raggruppa 5" transform="translate(6.051 6.051)">
    <g id="Raggruppa_4" data-name="Raggruppa 4">
      <path id="Tracciato_6" data-name="Tracciato 6" d="M134.051,128a6.051,6.051,0,1,0,6.051,6.051A6.051,6.051,0,0,0,134.051,128Zm0,9.832a3.782,3.782,0,1,1,3.782-3.782A3.787,3.787,0,0,1,134.051,137.832Z" transform="translate(-128 -128)" fill="#fff"/>
    </g>
  </g>
  <g id="Raggruppa_7" data-name="Raggruppa 7" transform="translate(17.799 4.791)">
    <g id="Raggruppa_6" data-name="Raggruppa 6">
      <ellipse id="Ellisse_8" data-name="Ellisse 8" cx="0.806" cy="0.806" rx="0.806" ry="0.806" fill="#fff"/>
    </g>
  </g>
</svg>
