<svg xmlns="http://www.w3.org/2000/svg" width="66.181" height="66.181" viewBox="0 0 66.181 66.181">
  <g id="Raggruppa_711" data-name="Raggruppa 711" transform="translate(3257 -2630)">
    <path id="Tracciato_416" data-name="Tracciato 416" d="M236.882,91h-29.7l-4.463,53.745a5.676,5.676,0,0,0,2.555.673h31.606A5.823,5.823,0,0,0,242.7,139.6V96.817A5.823,5.823,0,0,0,236.882,91Z" transform="translate(-3433.518 2550.763)" fill="#848484"/>
    <path id="Tracciato_417" data-name="Tracciato 417" d="M169.867,407.86l1.03,8.366a5.918,5.918,0,0,0,3.217,4.423c3.77-4.055,1.243-1.466,10.189-11.09Z" transform="translate(-3404.91 2274.859)" fill="#372dbd"/>
    <path id="Tracciato_418" data-name="Tracciato 418" d="M36.393,54.418c.634-.725,1.191-1.212,1.041-2.21L31.56,5.1A5.824,5.824,0,0,0,25.789,0H5.817A5.823,5.823,0,0,0,0,5.817V48.6a5.823,5.823,0,0,0,5.817,5.817Z" transform="translate(-3257 2630)" fill="#372dbd"/>
    <path id="Tracciato_419" data-name="Tracciato 419" d="M87.594,107.558a1.94,1.94,0,0,0-1.9-1.558H81.815a1.94,1.94,0,0,0-1.9,1.558l-3.878,19.389a1.939,1.939,0,0,0,3.8.761l1.239-6.2h5.353l1.239,6.2a1.939,1.939,0,0,0,3.8-.761Zm-5.741,10.075,1.551-7.756h.7l1.551,7.756Z" transform="translate(-3323.175 2537.701)" fill="#e6eeff"/>
    <path id="Tracciato_420" data-name="Tracciato 420" d="M318.45,199.878h-5.817v-1.939a1.939,1.939,0,0,0-3.878,0v1.939h-5.817a1.939,1.939,0,1,0,0,3.878h.518A24.477,24.477,0,0,0,308,212.248c-1.424,1.3-2.818,2.37-4.333,3.567a1.938,1.938,0,0,0,2.424,3.026c1.645-1.3,3.061-2.386,4.6-3.8,1.544,1.417,2.96,2.5,4.6,3.8a1.938,1.938,0,1,0,2.424-3.026c-1.514-1.2-2.908-2.265-4.332-3.567a24.472,24.472,0,0,0,4.542-8.493h.518a1.939,1.939,0,1,0,0-3.878Zm-7.755,9.5a20.264,20.264,0,0,1-3.183-5.618h6.366A20.26,20.26,0,0,1,310.694,209.374Z" transform="translate(-3519.093 2459.335)" fill="#fff"/>
  </g>
</svg>
