<svg xmlns="http://www.w3.org/2000/svg" width="24.203" height="24.419" viewBox="0 0 24.203 24.419">
  <g id="linkedin" transform="translate(-0.03 0.106)">
    <g id="Raggruppa_15" data-name="Raggruppa 15" transform="translate(0.03 7.674)">
      <g id="Raggruppa_14" data-name="Raggruppa 14">
        <rect id="Rettangolo_3" data-name="Rettangolo 3" width="5.412" height="16.639" fill="#fff"/>
      </g>
    </g>
    <g id="Raggruppa_17" data-name="Raggruppa 17" transform="translate(7.593 7.674)">
      <g id="Raggruppa_16" data-name="Raggruppa 16">
        <path id="Tracciato_8" data-name="Tracciato 8" d="M172.591,160.2c-.057-.018-.112-.038-.172-.054s-.145-.03-.219-.042a4.852,4.852,0,0,0-.971-.1,7.52,7.52,0,0,0-5.816,3.181V160H160v16.639h5.412v-9.076s4.09-5.7,5.816-1.513v10.589h5.411V165.411A5.4,5.4,0,0,0,172.591,160.2Z" transform="translate(-160 -160)" fill="#fff"/>
      </g>
    </g>
    <g id="Raggruppa_19" data-name="Raggruppa 19" transform="translate(0 0)">
      <g id="Raggruppa_18" data-name="Raggruppa 18" transform="translate(0 0)">
        <circle id="Ellisse_10" data-name="Ellisse 10" cx="2.5" cy="2.5" r="2.5" transform="translate(0.234 -0.106)" fill="#fff"/>
      </g>
    </g>
  </g>
</svg>
