<svg xmlns="http://www.w3.org/2000/svg" width="443.903" height="512.001" viewBox="0 0 443.903 512.001">
  <g id="Raggruppa_28" data-name="Raggruppa 28" transform="translate(-3067.34 15754.001)">
    <g id="Raggruppa_25" data-name="Raggruppa 25">
      <path id="Tracciato_315" data-name="Tracciato 315" d="M323.432,125.538,103.142,0,12.694,53.31,133.312,122.2,0,198.077l103.022,58.744Z" transform="translate(3187.812 -15754.001)" fill="#ffda38" fill-rule="evenodd"/>
      <path id="Tracciato_316" data-name="Tracciato 316" d="M323.478,136.77l-.092,259.4L236.1,446.36l-.5-140.811L101.884,382.9,0,325.072V209.31l103.022,58.744Z" transform="translate(3187.766 -15765.233)" fill="#fbbf15" fill-rule="evenodd"/>
      <path id="Tracciato_317" data-name="Tracciato 317" d="M463.762,127.154,359.877,67.74,241.82,133.074l107.235,59.662Z" transform="translate(2825.521 -15759.563)" fill="#fcfcfc" fill-rule="evenodd"/>
      <path id="Tracciato_318" data-name="Tracciato 318" d="M218.235,198.591v135.6l115.221,66.335,119.517-71.016L452.5,455.486,333.7,523.409,112.239,396.5,111,138.92Z" transform="translate(2956.386 -15765.409)" fill="#e6e6e6" fill-rule="evenodd"/>
      <path id="Tracciato_316-2" data-name="Tracciato 316" d="M331.3,320.65,197.9,398.926,95.75,340.182" transform="translate(3092.062 -15780.335)" fill="#fbbf15" fill-rule="evenodd"/>
    </g>
  </g>
</svg>
