<?xml version="1.0" encoding="utf-8"?>
<!-- Generator: Adobe Illustrator 24.2.3, SVG Export Plug-In . SVG Version: 6.00 Build 0)  -->
<svg version="1.1" id="Livello_1" xmlns="http://www.w3.org/2000/svg" xmlns:xlink="http://www.w3.org/1999/xlink" x="0px" y="0px"
	 viewBox="0 0 335 85" style="enable-background:new 0 0 335 85;" xml:space="preserve">
<style type="text/css">
	.st0{fill:#E30613;}
</style>
<g>
	<path d="M144.5,25.3c-2.9-4.4-8.8-6.3-14.1-3.4c-1.4,0.8-2.6,1.9-3.5,3.3L95.7,73.3c-0.4,0.7,0,1.6,0.9,1.6h8.4c5.8,0,11.1-3,14-8
		l5.3-9l-1.9-6.6c-0.1-0.2-0.1-0.4,0-0.6c0.2-0.5,0.7-0.8,1.3-0.6l4.4,1.5l7.6-12.9l9.4,16l5.2,4.4c0.5,0.4,0.8,1,0.8,1.6v4.2
		l1.2,2.1c2.9,5,8.3,8,14,8h8.4c0.8,0,1.3-0.9,0.9-1.6L144.5,25.3z"/>
	<path d="M83.8,20.5h-3.9c-0.7,0-1.4,0.4-1.7,0.9L54.1,58c-0.2,0.3-0.7,0.3-0.9,0l-24-36.5c-0.4-0.6-1-0.9-1.7-0.9h-3.8
		c-5.1,0-9.2,4.1-9.2,9.2v44.1c0,0.6,0.5,1,1,1h5.5c5.1,0,9.2-4.1,9.2-9.2V46.9L45,70.2c1.8,2.9,5,4.6,8.4,4.6H54
		c3.4,0,6.6-1.7,8.4-4.6l14.8-23.3v27.4c0,0.5,0.7,0.7,1,0.3l12.5-19.3c1.4-2.2,2.2-4.8,2.2-7.4V29.7C93,24.6,88.9,20.5,83.8,20.5"
		/>
	<path d="M224.4,41.7c2.2-0.6,5.5-3.7,5.5-9.4c0-9.3-6-11.8-22.3-11.8h-46.7c-0.4,0-0.6,0.5-0.4,0.8l6.1,9.3c0.8,1.2,2,1.9,3.4,1.9
		h37.3c3.8,0,6.3,0.6,6.3,4.5c0,4.9-5,4.7-13,4.7h-25.9c-0.4,0-0.6,0.5-0.4,0.8l6,9.3c0.8,1.2,2,1.9,3.4,1.9h30.5
		c6.5,0,12.8,0.3,12.8,4.3c0,4-3.1,5-9.9,5h-28.7c-0.4,0-0.6,0.4-0.4,0.8l6,9.3c0.8,1.2,2,1.9,3.4,1.9H226
		c12.2,0,18.9-5.2,18.9-15.8C244.9,49.8,237.9,41.7,224.4,41.7"/>
	<path d="M317.2,20.5h-6.7v27.8c0,9.2-6.5,14.6-17.2,14.6h-7.2c-10.6,0-17.2-5.4-17.2-14.6V29.7c0-5.1-4.1-9.2-9.2-9.2h-5.6
		c-0.6,0-1,0.5-1,1v26.1c0,17.8,10.9,27.2,31.4,27.2h10.3c20.6,0,31.4-9.4,31.4-27.2v-18C326.4,24.6,322.3,20.5,317.2,20.5"/>
	<path class="st0" d="M122.6,51.5c-0.1-0.1-0.1-0.2-0.1-0.3c-0.1-0.2-0.1-0.4,0-0.6c0.2-0.5,0.7-0.8,1.3-0.6l26.1,8.6
		c0.8,0.3,1.4,1.1,1.4,1.9v4.2h-16.9c-0.6,0-1.2-0.3-1.6-0.8L122.6,51.5z"/>
	<path class="st0" d="M281.9,7.3L292,19.8c0.4,0.5,1,0.8,1.6,0.8h16.9v-4.2c0-0.9-0.5-1.6-1.4-1.9l-26.1-8.6
		c-0.5-0.2-1.1,0.1-1.3,0.6c-0.1,0.2-0.1,0.4,0,0.6C281.8,7.1,281.9,7.2,281.9,7.3"/>
</g>
</svg>
