<svg xmlns="http://www.w3.org/2000/svg" viewBox="0 0 512 512"><defs><style>.cls-1{fill:#2f2e3b;}</style></defs><g id="Livello_2" data-name="Livello 2"><g id="Livello_1-2" data-name="Livello 1"><path class="cls-1" d="M256,0C114.83,0,0,114.83,0,256S114.83,512,256,512,512,397.17,512,256,397.17,0,256,0ZM380.88,220.87,263.54,338.21a10.67,10.67,0,0,1-15.08,0L131.12,220.87a10.66,10.66,0,0,1,7.55-18.2h32a10.66,10.66,0,0,1,7.54,3.12L256,283.58l77.79-77.79a10.66,10.66,0,0,1,7.54-3.12h32a10.66,10.66,0,0,1,7.55,18.2Z"/></g></g></svg>