<svg xmlns="http://www.w3.org/2000/svg" width="45.009" height="52.853" viewBox="0 0 45.009 52.853">
  <g id="Raggruppa_730" data-name="Raggruppa 730" transform="translate(3160 -3074)">
    <path id="Tracciato_502" data-name="Tracciato 502" d="M43.131,35.3a26.665,26.665,0,0,1-6.387,9.949,33.429,33.429,0,0,1-12.481,7.4,3.818,3.818,0,0,1-1.213.214H23a3.873,3.873,0,0,1-.744-.073,4.032,4.032,0,0,1-.512-.139,33.427,33.427,0,0,1-12.5-7.391A26.615,26.615,0,0,1,2.868,35.3C.288,28.3.435,20.591.553,14.394l0-.1c.024-.512.039-1.049.048-1.643A5.6,5.6,0,0,1,5.877,7.168,21.737,21.737,0,0,0,20.672.932L20.707.9a3.386,3.386,0,0,1,4.6,0l.034.032a21.741,21.741,0,0,0,14.8,6.236,5.6,5.6,0,0,1,5.275,5.488c.008.6.024,1.134.048,1.643v.04C45.574,20.548,45.72,28.274,43.131,35.3Zm0,0" transform="translate(-3160.5 3074)" fill="#372dbd"/>
    <path id="Tracciato_503" data-name="Tracciato 503" d="M239.03,35.3a26.665,26.665,0,0,1-6.387,9.949,33.429,33.429,0,0,1-12.481,7.4,3.819,3.819,0,0,1-1.213.214V0A3.391,3.391,0,0,1,221.2.9l.034.032a21.741,21.741,0,0,0,14.8,6.236,5.6,5.6,0,0,1,5.275,5.488c.008.6.024,1.134.048,1.643v.04C241.473,20.551,241.619,28.278,239.03,35.3Zm0,0" transform="translate(-3356.398 3073.997)" fill="#534cbe"/>
    <path id="Tracciato_504" data-name="Tracciato 504" d="M117.239,141.57a13.189,13.189,0,0,1-13.126,13.173h-.046a13.172,13.172,0,1,1,0-26.345h.046A13.189,13.189,0,0,1,117.239,141.57Zm0,0" transform="translate(-3241.563 2958.856)" fill="#fff"/>
    <path id="Tracciato_505" data-name="Tracciato 505" d="M232.075,141.57a13.189,13.189,0,0,1-13.126,13.173V128.4A13.189,13.189,0,0,1,232.075,141.57Zm0,0" transform="translate(-3356.398 2958.856)" fill="#e2e1f0"/>
    <path id="Tracciato_506" data-name="Tracciato 506" d="M166.8,214.627l-5.932,5.933-1.282,1.282a1.552,1.552,0,0,1-2.194,0l-2.756-2.757a1.551,1.551,0,1,1,2.193-2.193l1.661,1.661,6.118-6.118a1.551,1.551,0,0,1,2.193,2.193Zm0,0" transform="translate(-3298.313 2883.903)" fill="#b4b6d7"/>
    <path id="Tracciato_507" data-name="Tracciato 507" d="M224.881,214.627l-5.932,5.933v-4.387l3.74-3.739a1.551,1.551,0,0,1,2.193,2.193Zm0,0" transform="translate(-3356.398 2883.903)" fill="#736faa"/>
  </g>
</svg>
