<svg xmlns="http://www.w3.org/2000/svg" width="76.152" height="47" viewBox="0 0 76.152 47">
  <g id="Raggruppa_731" data-name="Raggruppa 731" transform="translate(3236 -2422)">
    <path id="Tracciato_441" data-name="Tracciato 441" d="M180.737,206.771a7.433,7.433,0,1,0,3.366,3.366l-4.983,4.983a2.379,2.379,0,0,1-3.365-3.365Zm0,0" transform="translate(-3380.716 2246.639)" fill="#e6e6e6" fill-rule="evenodd"/>
    <path id="Tracciato_442" data-name="Tracciato 442" d="M209.7,117.941l-4.983,4.983a2.379,2.379,0,0,0,3.365,3.365l4.983-4.983,13.872-13.872,1.725-1.726a2.379,2.379,0,0,0-3.365-3.365l-1.726,1.725Zm0,0" transform="translate(-3409.676 2335.469)" fill="gray" fill-rule="evenodd"/>
    <path id="Tracciato_443" data-name="Tracciato 443" d="M375.9,124.907a26.641,26.641,0,0,1,3.584,13.388h15.171a36.417,36.417,0,0,0-6.322-20.566Zm0,0" transform="translate(-3555.992 2321.781)" fill="#372dbd" fill-rule="evenodd"/>
    <path id="Tracciato_444" data-name="Tracciato 444" d="M319.812,49.4l12.433-7.178a36.72,36.72,0,0,0-16.131-13.193l-6.1,10.569a26.914,26.914,0,0,1,3.785,2.65l1.726-1.725a2.379,2.379,0,0,1,3.365,3.365l-1.725,1.726A26.863,26.863,0,0,1,319.812,49.4Zm0,0" transform="translate(-3499.902 2397.287)" fill="#5b54be" fill-rule="evenodd"/>
    <path id="Tracciato_445" data-name="Tracciato 445" d="M233.388,23.4l6.1-10.57A36.476,36.476,0,0,0,225.355,10a36.9,36.9,0,0,0-5.354.389v9.428A26.641,26.641,0,0,1,233.388,23.4Zm0,0" transform="translate(-3423.279 2413.487)" fill="#746fbe" fill-rule="evenodd"/>
    <path id="Tracciato_446" data-name="Tracciato 446" d="M123.793,22.041V12.613A36.416,36.416,0,0,0,106.984,19.7l3.421,5.926a26.65,26.65,0,0,1,13.388-3.583Zm0,0" transform="translate(-3327.072 2411.263)" fill="#8885bf" fill-rule="evenodd"/>
    <path id="Tracciato_447" data-name="Tracciato 447" d="M48.685,66.176,45.264,60.25A36.742,36.742,0,0,0,34.48,73.434l4.4,2.542a26.909,26.909,0,0,1,9.8-9.8Zm0,0" transform="translate(-3265.352 2370.711)" fill="#a2a1bc" fill-rule="evenodd"/>
    <path id="Tracciato_448" data-name="Tracciato 448" d="M14.462,164.822H10a36.446,36.446,0,0,1,3.642-15.931l4.4,2.542a26.431,26.431,0,0,0-3.583,13.388Zm0,0" transform="translate(-3244.513 2295.254)" fill="#bcbcbc" fill-rule="evenodd"/>
    <path id="Tracciato_450" data-name="Tracciato 450" d="M51.668,98.292A1.489,1.489,0,0,0,53.749,98l.028-.037a1.487,1.487,0,1,0-2.351-1.823l-.056.073a1.485,1.485,0,0,0,.3,2.076Zm0,0" transform="translate(-3279.478 2340.647)"/>
    <path id="Tracciato_451" data-name="Tracciato 451" d="M65,11.152A38.082,38.082,0,0,0,32.579.4a1.547,1.547,0,0,0-.164.024A37.97,37.97,0,0,0,12.491,9.877a1.487,1.487,0,0,0,2,2.2c.328-.3.663-.587,1-.872l1.837,3.181a28.482,28.482,0,0,0-8.294,8.294l-1.939-1.12q.41-.767.856-1.514A1.487,1.487,0,0,0,5.4,18.519Q4.526,19.977,3.79,21.5l-.024.049A38.081,38.081,0,0,0,0,38.076a1.487,1.487,0,0,0,1.487,1.487H5.949a1.487,1.487,0,0,0,1.487-1.487,25.284,25.284,0,0,1,40.219-20.4L35.675,29.654a8.921,8.921,0,1,0,5.469,5.469L53.124,23.142a25.319,25.319,0,0,1,4.882,14.934,1.487,1.487,0,1,0,2.975,0A28.3,28.3,0,0,0,57.9,25.255l9.95-5.745a34.873,34.873,0,0,1,5.294,17.078h-3.1a1.487,1.487,0,0,0,0,2.975h4.616a1.488,1.488,0,0,0,1.487-1.487A37.828,37.828,0,0,0,65,11.152ZM4.5,36.589H3.006A35.1,35.1,0,0,1,5.8,24.252l1.739,1A28.065,28.065,0,0,0,4.5,36.589ZM50.054,5.081,45.543,12.9A28.307,28.307,0,0,0,34.209,9.858V3.189a35.344,35.344,0,0,1,3.867-.214A34.936,34.936,0,0,1,50.054,5.081ZM17.868,9.374A34.963,34.963,0,0,1,31.234,3.647V9.856A28.046,28.046,0,0,0,19.9,12.9Zm36.065,8.752-1.739,1.739h0l-18.84,18.84a.892.892,0,1,1-1.262-1.262L52.671,16.865a.892.892,0,0,1,1.262,1.262ZM38.671,38.076a5.949,5.949,0,1,1-5.949-5.949c.155,0,.309.008.461.019l-3.2,3.2a3.867,3.867,0,0,0,5.469,5.469l3.195-3.2c.012.153.02.306.02.461Zm17.744-15.4q-.552-.851-1.166-1.662l.787-.787a3.867,3.867,0,0,0-5.469-5.468l-.787.787q-.81-.614-1.662-1.166l4.708-8.154A35.324,35.324,0,0,1,66.166,17.05Zm0,0" transform="translate(-3236 2422)"/>
    <path id="Tracciato_452" data-name="Tracciato 452" d="M433.492,246h-.04a1.487,1.487,0,1,0,0,2.975h.04a1.487,1.487,0,1,0,0-2.975Zm0,0" transform="translate(-3603.717 2212.589)"/>
  </g>
</svg>
